<?xml version="1.0" encoding="UTF-8"?>
<svg xmlns="http://www.w3.org/2000/svg" xmlns:xlink="http://www.w3.org/1999/xlink" width="600pt" height="600pt" viewBox="0 0 600 600" version="1.1">
<g id="surface0">
<path style=" stroke:none;fill-rule:nonzero;fill:rgb(100%,0%,0%);fill-opacity:1;" d="M 10 10 L 11.269531 10 L 11.269531 590 L 10 590 Z M 10 10 "/>
<path style=" stroke:none;fill-rule:nonzero;fill:rgb(100%,0%,0%);fill-opacity:1;" d="M 11.269531 560.25 L 12.539063 560.25 L 12.539063 590 L 11.269531 590 Z M 11.269531 560.25 "/>
<path style=" stroke:none;fill-rule:nonzero;fill:rgb(100%,0%,0%);fill-opacity:1;" d="M 12.539063 574.988281 L 13.808594 574.988281 L 13.808594 590 L 12.539063 590 Z M 12.539063 574.988281 "/>
<path style=" stroke:none;fill-rule:nonzero;fill:rgb(100%,0%,0%);fill-opacity:1;" d="M 13.808594 580.59375 L 15.078125 580.59375 L 15.078125 590 L 13.808594 590 Z M 13.808594 580.59375 "/>
<path style=" stroke:none;fill-rule:nonzero;fill:rgb(100%,0%,0%);fill-opacity:1;" d="M 15.078125 583.59375 L 16.347656 583.59375 L 16.347656 590 L 15.078125 590 Z M 15.078125 583.59375 "/>
<path style=" stroke:none;fill-rule:nonzero;fill:rgb(100%,0%,0%);fill-opacity:1;" d="M 16.347656 585.363281 L 17.617188 585.363281 L 17.617188 590 L 16.347656 590 Z M 16.347656 585.363281 "/>
<path style=" stroke:none;fill-rule:nonzero;fill:rgb(100%,0%,0%);fill-opacity:1;" d="M 17.613281 586.4375 L 18.882813 586.4375 L 18.882813 590 L 17.613281 590 Z M 17.613281 586.4375 "/>
<path style=" stroke:none;fill-rule:nonzero;fill:rgb(100%,0%,0%);fill-opacity:1;" d="M 18.882813 587.136719 L 20.152344 587.136719 L 20.152344 590 L 18.882813 590 Z M 18.882813 587.136719 "/>
<path style=" stroke:none;fill-rule:nonzero;fill:rgb(100%,0%,0%);fill-opacity:1;" d="M 20.152344 587.632813 L 21.421875 587.632813 L 21.421875 590 L 20.152344 590 Z M 20.152344 587.632813 "/>
<path style=" stroke:none;fill-rule:nonzero;fill:rgb(100%,0%,0%);fill-opacity:1;" d="M 21.421875 588.042969 L 22.691406 588.042969 L 22.691406 590 L 21.421875 590 Z M 21.421875 588.042969 "/>
<path style=" stroke:none;fill-rule:nonzero;fill:rgb(100%,0%,0%);fill-opacity:1;" d="M 22.691406 588.4375 L 23.960938 588.4375 L 23.960938 590 L 22.691406 590 Z M 22.691406 588.4375 "/>
<path style=" stroke:none;fill-rule:nonzero;fill:rgb(100%,0%,0%);fill-opacity:1;" d="M 23.960938 588.730469 L 25.230469 588.730469 L 25.230469 590 L 23.960938 590 Z M 23.960938 588.730469 "/>
<path style=" stroke:none;fill-rule:nonzero;fill:rgb(100%,0%,0%);fill-opacity:1;" d="M 25.230469 588.871094 L 26.5 588.871094 L 26.5 590 L 25.230469 590 Z M 25.230469 588.871094 "/>
<path style=" stroke:none;fill-rule:nonzero;fill:rgb(100%,0%,0%);fill-opacity:1;" d="M 26.5 589.054688 L 27.769531 589.054688 L 27.769531 590 L 26.5 590 Z M 26.5 589.054688 "/>
<path style=" stroke:none;fill-rule:nonzero;fill:rgb(100%,0%,0%);fill-opacity:1;" d="M 27.769531 589.101563 L 29.039063 589.101563 L 29.039063 590 L 27.769531 590 Z M 27.769531 589.101563 "/>
<path style=" stroke:none;fill-rule:nonzero;fill:rgb(100%,0%,0%);fill-opacity:1;" d="M 29.039063 589.171875 L 30.308594 589.171875 L 30.308594 590 L 29.039063 590 Z M 29.039063 589.171875 "/>
<path style=" stroke:none;fill-rule:nonzero;fill:rgb(100%,0%,0%);fill-opacity:1;" d="M 30.304688 589.277344 L 31.574219 589.277344 L 31.574219 590 L 30.304688 590 Z M 30.304688 589.277344 "/>
<path style=" stroke:none;fill-rule:nonzero;fill:rgb(100%,0%,0%);fill-opacity:1;" d="M 31.574219 589.316406 L 32.84375 589.316406 L 32.84375 590 L 31.574219 590 Z M 31.574219 589.316406 "/>
<path style=" stroke:none;fill-rule:nonzero;fill:rgb(100%,0%,0%);fill-opacity:1;" d="M 32.84375 589.523438 L 34.113281 589.523438 L 34.113281 590 L 32.84375 590 Z M 32.84375 589.523438 "/>
<path style=" stroke:none;fill-rule:nonzero;fill:rgb(100%,0%,0%);fill-opacity:1;" d="M 34.113281 589.480469 L 35.382813 589.480469 L 35.382813 590 L 34.113281 590 Z M 34.113281 589.480469 "/>
<path style=" stroke:none;fill-rule:nonzero;fill:rgb(100%,0%,0%);fill-opacity:1;" d="M 35.382813 589.542969 L 36.652344 589.542969 L 36.652344 590 L 35.382813 590 Z M 35.382813 589.542969 "/>
<path style=" stroke:none;fill-rule:nonzero;fill:rgb(100%,0%,0%);fill-opacity:1;" d="M 36.652344 589.609375 L 37.921875 589.609375 L 37.921875 590 L 36.652344 590 Z M 36.652344 589.609375 "/>
<path style=" stroke:none;fill-rule:nonzero;fill:rgb(100%,0%,0%);fill-opacity:1;" d="M 37.921875 589.597656 L 39.191406 589.597656 L 39.191406 590 L 37.921875 590 Z M 37.921875 589.597656 "/>
<path style=" stroke:none;fill-rule:nonzero;fill:rgb(100%,0%,0%);fill-opacity:1;" d="M 39.191406 589.679688 L 40.460938 589.679688 L 40.460938 590 L 39.191406 590 Z M 39.191406 589.679688 "/>
<path style=" stroke:none;fill-rule:nonzero;fill:rgb(100%,0%,0%);fill-opacity:1;" d="M 40.460938 589.753906 L 41.730469 589.753906 L 41.730469 590 L 40.460938 590 Z M 40.460938 589.753906 "/>
<path style=" stroke:none;fill-rule:nonzero;fill:rgb(100%,0%,0%);fill-opacity:1;" d="M 41.730469 589.761719 L 43 589.761719 L 43 590 L 41.730469 590 Z M 41.730469 589.761719 "/>
<path style=" stroke:none;fill-rule:nonzero;fill:rgb(100%,0%,0%);fill-opacity:1;" d="M 42.996094 589.753906 L 44.265625 589.753906 L 44.265625 590 L 42.996094 590 Z M 42.996094 589.753906 "/>
<path style=" stroke:none;fill-rule:nonzero;fill:rgb(100%,0%,0%);fill-opacity:1;" d="M 44.265625 589.785156 L 45.535156 589.785156 L 45.535156 590 L 44.265625 590 Z M 44.265625 589.785156 "/>
<path style=" stroke:none;fill-rule:nonzero;fill:rgb(100%,0%,0%);fill-opacity:1;" d="M 45.535156 589.789063 L 46.804688 589.789063 L 46.804688 590 L 45.535156 590 Z M 45.535156 589.789063 "/>
<path style=" stroke:none;fill-rule:nonzero;fill:rgb(100%,0%,0%);fill-opacity:1;" d="M 46.804688 589.832031 L 48.074219 589.832031 L 48.074219 590 L 46.804688 590 Z M 46.804688 589.832031 "/>
<path style=" stroke:none;fill-rule:nonzero;fill:rgb(100%,0%,0%);fill-opacity:1;" d="M 48.074219 589.871094 L 49.34375 589.871094 L 49.34375 590 L 48.074219 590 Z M 48.074219 589.871094 "/>
<path style=" stroke:none;fill-rule:nonzero;fill:rgb(100%,0%,0%);fill-opacity:1;" d="M 49.34375 589.859375 L 50.613281 589.859375 L 50.613281 590 L 49.34375 590 Z M 49.34375 589.859375 "/>
<path style=" stroke:none;fill-rule:nonzero;fill:rgb(100%,0%,0%);fill-opacity:1;" d="M 50.613281 589.859375 L 51.882813 589.859375 L 51.882813 590 L 50.613281 590 Z M 50.613281 589.859375 "/>
<path style=" stroke:none;fill-rule:nonzero;fill:rgb(100%,0%,0%);fill-opacity:1;" d="M 51.882813 589.871094 L 53.152344 589.871094 L 53.152344 590 L 51.882813 590 Z M 51.882813 589.871094 "/>
<path style=" stroke:none;fill-rule:nonzero;fill:rgb(100%,0%,0%);fill-opacity:1;" d="M 53.152344 589.90625 L 54.421875 589.90625 L 54.421875 590 L 53.152344 590 Z M 53.152344 589.90625 "/>
<path style=" stroke:none;fill-rule:nonzero;fill:rgb(100%,0%,0%);fill-opacity:1;" d="M 54.421875 589.90625 L 55.691406 589.90625 L 55.691406 590 L 54.421875 590 Z M 54.421875 589.90625 "/>
<path style=" stroke:none;fill-rule:nonzero;fill:rgb(100%,0%,0%);fill-opacity:1;" d="M 55.6875 589.90625 L 56.957031 589.90625 L 56.957031 590 L 55.6875 590 Z M 55.6875 589.90625 "/>
<path style=" stroke:none;fill-rule:nonzero;fill:rgb(100%,0%,0%);fill-opacity:1;" d="M 56.957031 589.882813 L 58.226563 589.882813 L 58.226563 590 L 56.957031 590 Z M 56.957031 589.882813 "/>
<path style=" stroke:none;fill-rule:nonzero;fill:rgb(100%,0%,0%);fill-opacity:1;" d="M 58.226563 589.914063 L 59.496094 589.914063 L 59.496094 590 L 58.226563 590 Z M 58.226563 589.914063 "/>
<path style=" stroke:none;fill-rule:nonzero;fill:rgb(100%,0%,0%);fill-opacity:1;" d="M 59.496094 589.9375 L 60.765625 589.9375 L 60.765625 590 L 59.496094 590 Z M 59.496094 589.9375 "/>
<path style=" stroke:none;fill-rule:nonzero;fill:rgb(100%,0%,0%);fill-opacity:1;" d="M 60.765625 589.921875 L 62.035156 589.921875 L 62.035156 590 L 60.765625 590 Z M 60.765625 589.921875 "/>
<path style=" stroke:none;fill-rule:nonzero;fill:rgb(100%,0%,0%);fill-opacity:1;" d="M 62.035156 589.953125 L 63.304688 589.953125 L 63.304688 590 L 62.035156 590 Z M 62.035156 589.953125 "/>
<path style=" stroke:none;fill-rule:nonzero;fill:rgb(100%,0%,0%);fill-opacity:1;" d="M 63.304688 589.933594 L 64.574219 589.933594 L 64.574219 590 L 63.304688 590 Z M 63.304688 589.933594 "/>
<path style=" stroke:none;fill-rule:nonzero;fill:rgb(100%,0%,0%);fill-opacity:1;" d="M 64.574219 589.925781 L 65.84375 589.925781 L 65.84375 590 L 64.574219 590 Z M 64.574219 589.925781 "/>
<path style=" stroke:none;fill-rule:nonzero;fill:rgb(100%,0%,0%);fill-opacity:1;" d="M 65.84375 589.9375 L 67.113281 589.9375 L 67.113281 590 L 65.84375 590 Z M 65.84375 589.9375 "/>
<path style=" stroke:none;fill-rule:nonzero;fill:rgb(100%,0%,0%);fill-opacity:1;" d="M 67.113281 589.949219 L 68.382813 589.949219 L 68.382813 590 L 67.113281 590 Z M 67.113281 589.949219 "/>
<path style=" stroke:none;fill-rule:nonzero;fill:rgb(100%,0%,0%);fill-opacity:1;" d="M 68.378906 589.9375 L 69.648438 589.9375 L 69.648438 590 L 68.378906 590 Z M 68.378906 589.9375 "/>
<path style=" stroke:none;fill-rule:nonzero;fill:rgb(100%,0%,0%);fill-opacity:1;" d="M 69.648438 589.953125 L 70.917969 589.953125 L 70.917969 590 L 69.648438 590 Z M 69.648438 589.953125 "/>
<path style=" stroke:none;fill-rule:nonzero;fill:rgb(100%,0%,0%);fill-opacity:1;" d="M 70.917969 589.929688 L 72.1875 589.929688 L 72.1875 590 L 70.917969 590 Z M 70.917969 589.929688 "/>
<path style=" stroke:none;fill-rule:nonzero;fill:rgb(100%,0%,0%);fill-opacity:1;" d="M 72.1875 589.972656 L 73.457031 589.972656 L 73.457031 590 L 72.1875 590 Z M 72.1875 589.972656 "/>
<path style=" stroke:none;fill-rule:nonzero;fill:rgb(100%,0%,0%);fill-opacity:1;" d="M 73.457031 589.972656 L 74.726563 589.972656 L 74.726563 590 L 73.457031 590 Z M 73.457031 589.972656 "/>
<path style=" stroke:none;fill-rule:nonzero;fill:rgb(100%,0%,0%);fill-opacity:1;" d="M 74.726563 589.976563 L 75.996094 589.976563 L 75.996094 590 L 74.726563 590 Z M 74.726563 589.976563 "/>
<path style=" stroke:none;fill-rule:nonzero;fill:rgb(100%,0%,0%);fill-opacity:1;" d="M 75.996094 589.953125 L 77.265625 589.953125 L 77.265625 590 L 75.996094 590 Z M 75.996094 589.953125 "/>
<path style=" stroke:none;fill-rule:nonzero;fill:rgb(100%,0%,0%);fill-opacity:1;" d="M 77.265625 589.964844 L 78.535156 589.964844 L 78.535156 590 L 77.265625 590 Z M 77.265625 589.964844 "/>
<path style=" stroke:none;fill-rule:nonzero;fill:rgb(100%,0%,0%);fill-opacity:1;" d="M 78.535156 589.972656 L 79.804688 589.972656 L 79.804688 590 L 78.535156 590 Z M 78.535156 589.972656 "/>
<path style=" stroke:none;fill-rule:nonzero;fill:rgb(100%,0%,0%);fill-opacity:1;" d="M 79.804688 589.972656 L 81.074219 589.972656 L 81.074219 590 L 79.804688 590 Z M 79.804688 589.972656 "/>
<path style=" stroke:none;fill-rule:nonzero;fill:rgb(100%,0%,0%);fill-opacity:1;" d="M 81.070313 589.972656 L 82.339844 589.972656 L 82.339844 590 L 81.070313 590 Z M 81.070313 589.972656 "/>
<path style=" stroke:none;fill-rule:nonzero;fill:rgb(100%,0%,0%);fill-opacity:1;" d="M 82.339844 589.988281 L 83.609375 589.988281 L 83.609375 590 L 82.339844 590 Z M 82.339844 589.988281 "/>
<path style=" stroke:none;fill-rule:nonzero;fill:rgb(100%,0%,0%);fill-opacity:1;" d="M 83.609375 589.984375 L 84.878906 589.984375 L 84.878906 590 L 83.609375 590 Z M 83.609375 589.984375 "/>
<path style=" stroke:none;fill-rule:nonzero;fill:rgb(100%,0%,0%);fill-opacity:1;" d="M 84.878906 589.96875 L 86.148438 589.96875 L 86.148438 590 L 84.878906 590 Z M 84.878906 589.96875 "/>
<path style=" stroke:none;fill-rule:nonzero;fill:rgb(100%,0%,0%);fill-opacity:1;" d="M 86.148438 589.972656 L 87.417969 589.972656 L 87.417969 590 L 86.148438 590 Z M 86.148438 589.972656 "/>
<path style=" stroke:none;fill-rule:nonzero;fill:rgb(100%,0%,0%);fill-opacity:1;" d="M 87.417969 589.980469 L 88.6875 589.980469 L 88.6875 590 L 87.417969 590 Z M 87.417969 589.980469 "/>
<path style=" stroke:none;fill-rule:nonzero;fill:rgb(100%,0%,0%);fill-opacity:1;" d="M 88.6875 589.964844 L 89.957031 589.964844 L 89.957031 590 L 88.6875 590 Z M 88.6875 589.964844 "/>
<path style=" stroke:none;fill-rule:nonzero;fill:rgb(100%,0%,0%);fill-opacity:1;" d="M 89.957031 589.972656 L 91.226563 589.972656 L 91.226563 590 L 89.957031 590 Z M 89.957031 589.972656 "/>
<path style=" stroke:none;fill-rule:nonzero;fill:rgb(100%,0%,0%);fill-opacity:1;" d="M 91.226563 589.996094 L 92.496094 589.996094 L 92.496094 590 L 91.226563 590 Z M 91.226563 589.996094 "/>
<path style=" stroke:none;fill-rule:nonzero;fill:rgb(100%,0%,0%);fill-opacity:1;" d="M 92.496094 589.984375 L 93.765625 589.984375 L 93.765625 590 L 92.496094 590 Z M 92.496094 589.984375 "/>
<path style=" stroke:none;fill-rule:nonzero;fill:rgb(100%,0%,0%);fill-opacity:1;" d="M 93.765625 589.988281 L 95.035156 589.988281 L 95.035156 590 L 93.765625 590 Z M 93.765625 589.988281 "/>
<path style=" stroke:none;fill-rule:nonzero;fill:rgb(100%,0%,0%);fill-opacity:1;" d="M 95.03125 589.984375 L 96.300781 589.984375 L 96.300781 590 L 95.03125 590 Z M 95.03125 589.984375 "/>
<path style=" stroke:none;fill-rule:nonzero;fill:rgb(100%,0%,0%);fill-opacity:1;" d="M 96.300781 589.980469 L 97.570313 589.980469 L 97.570313 590 L 96.300781 590 Z M 96.300781 589.980469 "/>
<path style=" stroke:none;fill-rule:nonzero;fill:rgb(100%,0%,0%);fill-opacity:1;" d="M 97.570313 589.992188 L 98.839844 589.992188 L 98.839844 590 L 97.570313 590 Z M 97.570313 589.992188 "/>
<path style=" stroke:none;fill-rule:nonzero;fill:rgb(100%,0%,0%);fill-opacity:1;" d="M 98.839844 589.984375 L 100.109375 589.984375 L 100.109375 590 L 98.839844 590 Z M 98.839844 589.984375 "/>
<path style=" stroke:none;fill-rule:nonzero;fill:rgb(100%,0%,0%);fill-opacity:1;" d="M 100.109375 589.992188 L 101.378906 589.992188 L 101.378906 590 L 100.109375 590 Z M 100.109375 589.992188 "/>
<path style=" stroke:none;fill-rule:nonzero;fill:rgb(100%,0%,0%);fill-opacity:1;" d="M 101.378906 589.996094 L 102.648438 589.996094 L 102.648438 590 L 101.378906 590 Z M 101.378906 589.996094 "/>
<path style=" stroke:none;fill-rule:nonzero;fill:rgb(100%,0%,0%);fill-opacity:1;" d="M 102.648438 589.984375 L 103.917969 589.984375 L 103.917969 590 L 102.648438 590 Z M 102.648438 589.984375 "/>
<path style=" stroke:none;fill-rule:nonzero;fill:rgb(100%,0%,0%);fill-opacity:1;" d="M 103.917969 589.992188 L 105.1875 589.992188 L 105.1875 590 L 103.917969 590 Z M 103.917969 589.992188 "/>
<path style=" stroke:none;fill-rule:nonzero;fill:rgb(100%,0%,0%);fill-opacity:1;" d="M 105.1875 589.996094 L 106.457031 589.996094 L 106.457031 590 L 105.1875 590 Z M 105.1875 589.996094 "/>
<path style=" stroke:none;fill-rule:nonzero;fill:rgb(100%,0%,0%);fill-opacity:1;" d="M 106.457031 590 L 107.726563 590 L 107.726563 590 L 106.457031 590 Z M 106.457031 590 "/>
<path style=" stroke:none;fill-rule:nonzero;fill:rgb(100%,0%,0%);fill-opacity:1;" d="M 107.722656 590 L 108.992188 590 L 108.992188 590 L 107.722656 590 Z M 107.722656 590 "/>
<path style=" stroke:none;fill-rule:nonzero;fill:rgb(100%,0%,0%);fill-opacity:1;" d="M 108.992188 589.972656 L 110.261719 589.972656 L 110.261719 590 L 108.992188 590 Z M 108.992188 589.972656 "/>
<path style=" stroke:none;fill-rule:nonzero;fill:rgb(100%,0%,0%);fill-opacity:1;" d="M 110.261719 589.992188 L 111.53125 589.992188 L 111.53125 590 L 110.261719 590 Z M 110.261719 589.992188 "/>
<path style=" stroke:none;fill-rule:nonzero;fill:rgb(100%,0%,0%);fill-opacity:1;" d="M 111.53125 589.988281 L 112.800781 589.988281 L 112.800781 590 L 111.53125 590 Z M 111.53125 589.988281 "/>
<path style=" stroke:none;fill-rule:nonzero;fill:rgb(100%,0%,0%);fill-opacity:1;" d="M 112.800781 589.988281 L 114.070313 589.988281 L 114.070313 590 L 112.800781 590 Z M 112.800781 589.988281 "/>
<path style=" stroke:none;fill-rule:nonzero;fill:rgb(100%,0%,0%);fill-opacity:1;" d="M 114.070313 589.988281 L 115.339844 589.988281 L 115.339844 590 L 114.070313 590 Z M 114.070313 589.988281 "/>
<path style=" stroke:none;fill-rule:nonzero;fill:rgb(100%,0%,0%);fill-opacity:1;" d="M 115.339844 590 L 116.609375 590 L 116.609375 590 L 115.339844 590 Z M 115.339844 590 "/>
<path style=" stroke:none;fill-rule:nonzero;fill:rgb(100%,0%,0%);fill-opacity:1;" d="M 116.609375 589.992188 L 117.878906 589.992188 L 117.878906 590 L 116.609375 590 Z M 116.609375 589.992188 "/>
<path style=" stroke:none;fill-rule:nonzero;fill:rgb(100%,0%,0%);fill-opacity:1;" d="M 117.878906 589.984375 L 119.148438 589.984375 L 119.148438 590 L 117.878906 590 Z M 117.878906 589.984375 "/>
<path style=" stroke:none;fill-rule:nonzero;fill:rgb(100%,0%,0%);fill-opacity:1;" d="M 119.148438 589.996094 L 120.417969 589.996094 L 120.417969 590 L 119.148438 590 Z M 119.148438 589.996094 "/>
<path style=" stroke:none;fill-rule:nonzero;fill:rgb(100%,0%,0%);fill-opacity:1;" d="M 120.414063 589.988281 L 121.683594 589.988281 L 121.683594 590 L 120.414063 590 Z M 120.414063 589.988281 "/>
<path style=" stroke:none;fill-rule:nonzero;fill:rgb(100%,0%,0%);fill-opacity:1;" d="M 121.683594 589.992188 L 122.953125 589.992188 L 122.953125 590 L 121.683594 590 Z M 121.683594 589.992188 "/>
<path style=" stroke:none;fill-rule:nonzero;fill:rgb(100%,0%,0%);fill-opacity:1;" d="M 122.953125 589.988281 L 124.222656 589.988281 L 124.222656 590 L 122.953125 590 Z M 122.953125 589.988281 "/>
<path style=" stroke:none;fill-rule:nonzero;fill:rgb(100%,0%,0%);fill-opacity:1;" d="M 124.222656 589.996094 L 125.492188 589.996094 L 125.492188 590 L 124.222656 590 Z M 124.222656 589.996094 "/>
<path style=" stroke:none;fill-rule:nonzero;fill:rgb(100%,0%,0%);fill-opacity:1;" d="M 125.492188 589.996094 L 126.761719 589.996094 L 126.761719 590 L 125.492188 590 Z M 125.492188 589.996094 "/>
<path style=" stroke:none;fill-rule:nonzero;fill:rgb(100%,0%,0%);fill-opacity:1;" d="M 126.761719 589.992188 L 128.03125 589.992188 L 128.03125 590 L 126.761719 590 Z M 126.761719 589.992188 "/>
<path style=" stroke:none;fill-rule:nonzero;fill:rgb(100%,0%,0%);fill-opacity:1;" d="M 128.03125 590 L 129.300781 590 L 129.300781 590 L 128.03125 590 Z M 128.03125 590 "/>
<path style=" stroke:none;fill-rule:nonzero;fill:rgb(100%,0%,0%);fill-opacity:1;" d="M 129.300781 589.996094 L 130.570313 589.996094 L 130.570313 590 L 129.300781 590 Z M 129.300781 589.996094 "/>
<path style=" stroke:none;fill-rule:nonzero;fill:rgb(100%,0%,0%);fill-opacity:1;" d="M 130.570313 589.992188 L 131.839844 589.992188 L 131.839844 590 L 130.570313 590 Z M 130.570313 589.992188 "/>
<path style=" stroke:none;fill-rule:nonzero;fill:rgb(100%,0%,0%);fill-opacity:1;" d="M 131.839844 589.992188 L 133.109375 589.992188 L 133.109375 590 L 131.839844 590 Z M 131.839844 589.992188 "/>
<path style=" stroke:none;fill-rule:nonzero;fill:rgb(100%,0%,0%);fill-opacity:1;" d="M 133.105469 590 L 134.375 590 L 134.375 590 L 133.105469 590 Z M 133.105469 590 "/>
<path style=" stroke:none;fill-rule:nonzero;fill:rgb(100%,0%,0%);fill-opacity:1;" d="M 134.375 589.980469 L 135.644531 589.980469 L 135.644531 590 L 134.375 590 Z M 134.375 589.980469 "/>
<path style=" stroke:none;fill-rule:nonzero;fill:rgb(100%,0%,0%);fill-opacity:1;" d="M 135.644531 589.996094 L 136.914063 589.996094 L 136.914063 590 L 135.644531 590 Z M 135.644531 589.996094 "/>
<path style=" stroke:none;fill-rule:nonzero;fill:rgb(100%,0%,0%);fill-opacity:1;" d="M 136.914063 589.992188 L 138.183594 589.992188 L 138.183594 590 L 136.914063 590 Z M 136.914063 589.992188 "/>
<path style=" stroke:none;fill-rule:nonzero;fill:rgb(100%,0%,0%);fill-opacity:1;" d="M 138.183594 589.984375 L 139.453125 589.984375 L 139.453125 590 L 138.183594 590 Z M 138.183594 589.984375 "/>
<path style=" stroke:none;fill-rule:nonzero;fill:rgb(100%,0%,0%);fill-opacity:1;" d="M 139.453125 589.980469 L 140.722656 589.980469 L 140.722656 590 L 139.453125 590 Z M 139.453125 589.980469 "/>
<path style=" stroke:none;fill-rule:nonzero;fill:rgb(100%,0%,0%);fill-opacity:1;" d="M 140.722656 590 L 141.992188 590 L 141.992188 590 L 140.722656 590 Z M 140.722656 590 "/>
<path style=" stroke:none;fill-rule:nonzero;fill:rgb(100%,0%,0%);fill-opacity:1;" d="M 141.992188 590 L 143.261719 590 L 143.261719 590 L 141.992188 590 Z M 141.992188 590 "/>
<path style=" stroke:none;fill-rule:nonzero;fill:rgb(100%,0%,0%);fill-opacity:1;" d="M 143.261719 589.992188 L 144.53125 589.992188 L 144.53125 590 L 143.261719 590 Z M 143.261719 589.992188 "/>
<path style=" stroke:none;fill-rule:nonzero;fill:rgb(100%,0%,0%);fill-opacity:1;" d="M 144.53125 590 L 145.800781 590 L 145.800781 590 L 144.53125 590 Z M 144.53125 590 "/>
<path style=" stroke:none;fill-rule:nonzero;fill:rgb(100%,0%,0%);fill-opacity:1;" d="M 145.796875 589.996094 L 147.066406 589.996094 L 147.066406 590 L 145.796875 590 Z M 145.796875 589.996094 "/>
<path style=" stroke:none;fill-rule:nonzero;fill:rgb(100%,0%,0%);fill-opacity:1;" d="M 147.066406 589.996094 L 148.335938 589.996094 L 148.335938 590 L 147.066406 590 Z M 147.066406 589.996094 "/>
<path style=" stroke:none;fill-rule:nonzero;fill:rgb(100%,0%,0%);fill-opacity:1;" d="M 148.335938 589.996094 L 149.605469 589.996094 L 149.605469 590 L 148.335938 590 Z M 148.335938 589.996094 "/>
<path style=" stroke:none;fill-rule:nonzero;fill:rgb(100%,0%,0%);fill-opacity:1;" d="M 149.605469 590 L 150.875 590 L 150.875 590 L 149.605469 590 Z M 149.605469 590 "/>
<path style=" stroke:none;fill-rule:nonzero;fill:rgb(100%,0%,0%);fill-opacity:1;" d="M 150.875 590 L 152.144531 590 L 152.144531 590 L 150.875 590 Z M 150.875 590 "/>
<path style=" stroke:none;fill-rule:nonzero;fill:rgb(100%,0%,0%);fill-opacity:1;" d="M 152.144531 589.996094 L 153.414063 589.996094 L 153.414063 590 L 152.144531 590 Z M 152.144531 589.996094 "/>
<path style=" stroke:none;fill-rule:nonzero;fill:rgb(100%,0%,0%);fill-opacity:1;" d="M 153.414063 589.988281 L 154.683594 589.988281 L 154.683594 590 L 153.414063 590 Z M 153.414063 589.988281 "/>
<path style=" stroke:none;fill-rule:nonzero;fill:rgb(100%,0%,0%);fill-opacity:1;" d="M 154.683594 590 L 155.953125 590 L 155.953125 590 L 154.683594 590 Z M 154.683594 590 "/>
<path style=" stroke:none;fill-rule:nonzero;fill:rgb(100%,0%,0%);fill-opacity:1;" d="M 155.953125 590 L 157.222656 590 L 157.222656 590 L 155.953125 590 Z M 155.953125 590 "/>
<path style=" stroke:none;fill-rule:nonzero;fill:rgb(100%,0%,0%);fill-opacity:1;" d="M 157.222656 589.996094 L 158.492188 589.996094 L 158.492188 590 L 157.222656 590 Z M 157.222656 589.996094 "/>
<path style=" stroke:none;fill-rule:nonzero;fill:rgb(100%,0%,0%);fill-opacity:1;" d="M 158.488281 589.996094 L 159.757813 589.996094 L 159.757813 590 L 158.488281 590 Z M 158.488281 589.996094 "/>
<path style=" stroke:none;fill-rule:nonzero;fill:rgb(100%,0%,0%);fill-opacity:1;" d="M 159.757813 589.992188 L 161.027344 589.992188 L 161.027344 590 L 159.757813 590 Z M 159.757813 589.992188 "/>
<path style=" stroke:none;fill-rule:nonzero;fill:rgb(100%,0%,0%);fill-opacity:1;" d="M 161.027344 589.996094 L 162.296875 589.996094 L 162.296875 590 L 161.027344 590 Z M 161.027344 589.996094 "/>
<path style=" stroke:none;fill-rule:nonzero;fill:rgb(100%,0%,0%);fill-opacity:1;" d="M 162.296875 589.992188 L 163.566406 589.992188 L 163.566406 590 L 162.296875 590 Z M 162.296875 589.992188 "/>
<path style=" stroke:none;fill-rule:nonzero;fill:rgb(100%,0%,0%);fill-opacity:1;" d="M 163.566406 590 L 164.835938 590 L 164.835938 590 L 163.566406 590 Z M 163.566406 590 "/>
<path style=" stroke:none;fill-rule:nonzero;fill:rgb(100%,0%,0%);fill-opacity:1;" d="M 164.835938 589.996094 L 166.105469 589.996094 L 166.105469 590 L 164.835938 590 Z M 164.835938 589.996094 "/>
<path style=" stroke:none;fill-rule:nonzero;fill:rgb(100%,0%,0%);fill-opacity:1;" d="M 166.105469 589.996094 L 167.375 589.996094 L 167.375 590 L 166.105469 590 Z M 166.105469 589.996094 "/>
<path style=" stroke:none;fill-rule:nonzero;fill:rgb(100%,0%,0%);fill-opacity:1;" d="M 167.375 589.992188 L 168.644531 589.992188 L 168.644531 590 L 167.375 590 Z M 167.375 589.992188 "/>
<path style=" stroke:none;fill-rule:nonzero;fill:rgb(100%,0%,0%);fill-opacity:1;" d="M 168.644531 589.996094 L 169.914063 589.996094 L 169.914063 590 L 168.644531 590 Z M 168.644531 589.996094 "/>
<path style=" stroke:none;fill-rule:nonzero;fill:rgb(100%,0%,0%);fill-opacity:1;" d="M 169.914063 590 L 171.183594 590 L 171.183594 590 L 169.914063 590 Z M 169.914063 590 "/>
<path style=" stroke:none;fill-rule:nonzero;fill:rgb(100%,0%,0%);fill-opacity:1;" d="M 171.179688 590 L 172.449219 590 L 172.449219 590 L 171.179688 590 Z M 171.179688 590 "/>
<path style=" stroke:none;fill-rule:nonzero;fill:rgb(100%,0%,0%);fill-opacity:1;" d="M 172.449219 590 L 173.71875 590 L 173.71875 590 L 172.449219 590 Z M 172.449219 590 "/>
<path style=" stroke:none;fill-rule:nonzero;fill:rgb(100%,0%,0%);fill-opacity:1;" d="M 173.71875 589.996094 L 174.988281 589.996094 L 174.988281 590 L 173.71875 590 Z M 173.71875 589.996094 "/>
<path style=" stroke:none;fill-rule:nonzero;fill:rgb(100%,0%,0%);fill-opacity:1;" d="M 174.988281 589.996094 L 176.257813 589.996094 L 176.257813 590 L 174.988281 590 Z M 174.988281 589.996094 "/>
<path style=" stroke:none;fill-rule:nonzero;fill:rgb(100%,0%,0%);fill-opacity:1;" d="M 176.257813 590 L 177.527344 590 L 177.527344 590 L 176.257813 590 Z M 176.257813 590 "/>
<path style=" stroke:none;fill-rule:nonzero;fill:rgb(100%,0%,0%);fill-opacity:1;" d="M 177.527344 590 L 178.796875 590 L 178.796875 590 L 177.527344 590 Z M 177.527344 590 "/>
<path style=" stroke:none;fill-rule:nonzero;fill:rgb(100%,0%,0%);fill-opacity:1;" d="M 178.796875 590 L 180.066406 590 L 180.066406 590 L 178.796875 590 Z M 178.796875 590 "/>
<path style=" stroke:none;fill-rule:nonzero;fill:rgb(100%,0%,0%);fill-opacity:1;" d="M 180.066406 590 L 181.335938 590 L 181.335938 590 L 180.066406 590 Z M 180.066406 590 "/>
<path style=" stroke:none;fill-rule:nonzero;fill:rgb(100%,0%,0%);fill-opacity:1;" d="M 181.335938 589.996094 L 182.605469 589.996094 L 182.605469 590 L 181.335938 590 Z M 181.335938 589.996094 "/>
<path style=" stroke:none;fill-rule:nonzero;fill:rgb(100%,0%,0%);fill-opacity:1;" d="M 182.605469 590 L 183.875 590 L 183.875 590 L 182.605469 590 Z M 182.605469 590 "/>
<path style=" stroke:none;fill-rule:nonzero;fill:rgb(100%,0%,0%);fill-opacity:1;" d="M 183.875 590 L 185.144531 590 L 185.144531 590 L 183.875 590 Z M 183.875 590 "/>
<path style=" stroke:none;fill-rule:nonzero;fill:rgb(100%,0%,0%);fill-opacity:1;" d="M 185.140625 590 L 186.410156 590 L 186.410156 590 L 185.140625 590 Z M 185.140625 590 "/>
<path style=" stroke:none;fill-rule:nonzero;fill:rgb(100%,0%,0%);fill-opacity:1;" d="M 186.410156 589.996094 L 187.679688 589.996094 L 187.679688 590 L 186.410156 590 Z M 186.410156 589.996094 "/>
<path style=" stroke:none;fill-rule:nonzero;fill:rgb(100%,0%,0%);fill-opacity:1;" d="M 187.679688 589.996094 L 188.949219 589.996094 L 188.949219 590 L 187.679688 590 Z M 187.679688 589.996094 "/>
<path style=" stroke:none;fill-rule:nonzero;fill:rgb(100%,0%,0%);fill-opacity:1;" d="M 188.949219 590 L 190.21875 590 L 190.21875 590 L 188.949219 590 Z M 188.949219 590 "/>
<path style=" stroke:none;fill-rule:nonzero;fill:rgb(100%,0%,0%);fill-opacity:1;" d="M 190.21875 590 L 191.488281 590 L 191.488281 590 L 190.21875 590 Z M 190.21875 590 "/>
<path style=" stroke:none;fill-rule:nonzero;fill:rgb(100%,0%,0%);fill-opacity:1;" d="M 191.488281 590 L 192.757813 590 L 192.757813 590 L 191.488281 590 Z M 191.488281 590 "/>
<path style=" stroke:none;fill-rule:nonzero;fill:rgb(100%,0%,0%);fill-opacity:1;" d="M 192.757813 589.992188 L 194.027344 589.992188 L 194.027344 590 L 192.757813 590 Z M 192.757813 589.992188 "/>
<path style=" stroke:none;fill-rule:nonzero;fill:rgb(100%,0%,0%);fill-opacity:1;" d="M 194.027344 590 L 195.296875 590 L 195.296875 590 L 194.027344 590 Z M 194.027344 590 "/>
<path style=" stroke:none;fill-rule:nonzero;fill:rgb(100%,0%,0%);fill-opacity:1;" d="M 195.296875 590 L 196.566406 590 L 196.566406 590 L 195.296875 590 Z M 195.296875 590 "/>
<path style=" stroke:none;fill-rule:nonzero;fill:rgb(100%,0%,0%);fill-opacity:1;" d="M 196.566406 590 L 197.835938 590 L 197.835938 590 L 196.566406 590 Z M 196.566406 590 "/>
<path style=" stroke:none;fill-rule:nonzero;fill:rgb(100%,0%,0%);fill-opacity:1;" d="M 197.832031 589.996094 L 199.101563 589.996094 L 199.101563 590 L 197.832031 590 Z M 197.832031 589.996094 "/>
<path style=" stroke:none;fill-rule:nonzero;fill:rgb(100%,0%,0%);fill-opacity:1;" d="M 199.101563 590 L 200.371094 590 L 200.371094 590 L 199.101563 590 Z M 199.101563 590 "/>
<path style=" stroke:none;fill-rule:nonzero;fill:rgb(100%,0%,0%);fill-opacity:1;" d="M 200.371094 589.996094 L 201.640625 589.996094 L 201.640625 590 L 200.371094 590 Z M 200.371094 589.996094 "/>
<path style=" stroke:none;fill-rule:nonzero;fill:rgb(100%,0%,0%);fill-opacity:1;" d="M 201.640625 590 L 202.910156 590 L 202.910156 590 L 201.640625 590 Z M 201.640625 590 "/>
<path style=" stroke:none;fill-rule:nonzero;fill:rgb(100%,0%,0%);fill-opacity:1;" d="M 202.910156 590 L 204.179688 590 L 204.179688 590 L 202.910156 590 Z M 202.910156 590 "/>
<path style=" stroke:none;fill-rule:nonzero;fill:rgb(100%,0%,0%);fill-opacity:1;" d="M 204.179688 590 L 205.449219 590 L 205.449219 590 L 204.179688 590 Z M 204.179688 590 "/>
<path style=" stroke:none;fill-rule:nonzero;fill:rgb(100%,0%,0%);fill-opacity:1;" d="M 205.449219 590 L 206.71875 590 L 206.71875 590 L 205.449219 590 Z M 205.449219 590 "/>
<path style=" stroke:none;fill-rule:nonzero;fill:rgb(100%,0%,0%);fill-opacity:1;" d="M 206.71875 590 L 207.988281 590 L 207.988281 590 L 206.71875 590 Z M 206.71875 590 "/>
<path style=" stroke:none;fill-rule:nonzero;fill:rgb(100%,0%,0%);fill-opacity:1;" d="M 207.988281 590 L 209.257813 590 L 209.257813 590 L 207.988281 590 Z M 207.988281 590 "/>
<path style=" stroke:none;fill-rule:nonzero;fill:rgb(100%,0%,0%);fill-opacity:1;" d="M 209.257813 590 L 210.527344 590 L 210.527344 590 L 209.257813 590 Z M 209.257813 590 "/>
<path style=" stroke:none;fill-rule:nonzero;fill:rgb(100%,0%,0%);fill-opacity:1;" d="M 210.523438 590 L 211.792969 590 L 211.792969 590 L 210.523438 590 Z M 210.523438 590 "/>
<path style=" stroke:none;fill-rule:nonzero;fill:rgb(100%,0%,0%);fill-opacity:1;" d="M 211.792969 589.996094 L 213.0625 589.996094 L 213.0625 590 L 211.792969 590 Z M 211.792969 589.996094 "/>
<path style=" stroke:none;fill-rule:nonzero;fill:rgb(100%,0%,0%);fill-opacity:1;" d="M 213.0625 590 L 214.332031 590 L 214.332031 590 L 213.0625 590 Z M 213.0625 590 "/>
<path style=" stroke:none;fill-rule:nonzero;fill:rgb(100%,0%,0%);fill-opacity:1;" d="M 214.332031 589.996094 L 215.601563 589.996094 L 215.601563 590 L 214.332031 590 Z M 214.332031 589.996094 "/>
<path style=" stroke:none;fill-rule:nonzero;fill:rgb(100%,0%,0%);fill-opacity:1;" d="M 215.601563 589.992188 L 216.871094 589.992188 L 216.871094 590 L 215.601563 590 Z M 215.601563 589.992188 "/>
<path style=" stroke:none;fill-rule:nonzero;fill:rgb(100%,0%,0%);fill-opacity:1;" d="M 216.871094 589.996094 L 218.140625 589.996094 L 218.140625 590 L 216.871094 590 Z M 216.871094 589.996094 "/>
<path style=" stroke:none;fill-rule:nonzero;fill:rgb(100%,0%,0%);fill-opacity:1;" d="M 218.140625 590 L 219.410156 590 L 219.410156 590 L 218.140625 590 Z M 218.140625 590 "/>
<path style=" stroke:none;fill-rule:nonzero;fill:rgb(100%,0%,0%);fill-opacity:1;" d="M 219.410156 590 L 220.679688 590 L 220.679688 590 L 219.410156 590 Z M 219.410156 590 "/>
<path style=" stroke:none;fill-rule:nonzero;fill:rgb(100%,0%,0%);fill-opacity:1;" d="M 220.679688 590 L 221.949219 590 L 221.949219 590 L 220.679688 590 Z M 220.679688 590 "/>
<path style=" stroke:none;fill-rule:nonzero;fill:rgb(100%,0%,0%);fill-opacity:1;" d="M 221.949219 590 L 223.21875 590 L 223.21875 590 L 221.949219 590 Z M 221.949219 590 "/>
<path style=" stroke:none;fill-rule:nonzero;fill:rgb(100%,0%,0%);fill-opacity:1;" d="M 223.214844 589.996094 L 224.484375 589.996094 L 224.484375 590 L 223.214844 590 Z M 223.214844 589.996094 "/>
<path style=" stroke:none;fill-rule:nonzero;fill:rgb(100%,0%,0%);fill-opacity:1;" d="M 224.484375 589.992188 L 225.753906 589.992188 L 225.753906 590 L 224.484375 590 Z M 224.484375 589.992188 "/>
<path style=" stroke:none;fill-rule:nonzero;fill:rgb(100%,0%,0%);fill-opacity:1;" d="M 225.753906 590 L 227.023438 590 L 227.023438 590 L 225.753906 590 Z M 225.753906 590 "/>
<path style=" stroke:none;fill-rule:nonzero;fill:rgb(100%,0%,0%);fill-opacity:1;" d="M 227.023438 590 L 228.292969 590 L 228.292969 590 L 227.023438 590 Z M 227.023438 590 "/>
<path style=" stroke:none;fill-rule:nonzero;fill:rgb(100%,0%,0%);fill-opacity:1;" d="M 228.292969 589.996094 L 229.5625 589.996094 L 229.5625 590 L 228.292969 590 Z M 228.292969 589.996094 "/>
<path style=" stroke:none;fill-rule:nonzero;fill:rgb(100%,0%,0%);fill-opacity:1;" d="M 229.5625 589.996094 L 230.832031 589.996094 L 230.832031 590 L 229.5625 590 Z M 229.5625 589.996094 "/>
<path style=" stroke:none;fill-rule:nonzero;fill:rgb(100%,0%,0%);fill-opacity:1;" d="M 230.832031 590 L 232.101563 590 L 232.101563 590 L 230.832031 590 Z M 230.832031 590 "/>
<path style=" stroke:none;fill-rule:nonzero;fill:rgb(100%,0%,0%);fill-opacity:1;" d="M 232.101563 590 L 233.371094 590 L 233.371094 590 L 232.101563 590 Z M 232.101563 590 "/>
<path style=" stroke:none;fill-rule:nonzero;fill:rgb(100%,0%,0%);fill-opacity:1;" d="M 233.371094 590 L 234.640625 590 L 234.640625 590 L 233.371094 590 Z M 233.371094 590 "/>
<path style=" stroke:none;fill-rule:nonzero;fill:rgb(100%,0%,0%);fill-opacity:1;" d="M 234.640625 590 L 235.910156 590 L 235.910156 590 L 234.640625 590 Z M 234.640625 590 "/>
<path style=" stroke:none;fill-rule:nonzero;fill:rgb(100%,0%,0%);fill-opacity:1;" d="M 235.90625 590 L 237.175781 590 L 237.175781 590 L 235.90625 590 Z M 235.90625 590 "/>
<path style=" stroke:none;fill-rule:nonzero;fill:rgb(100%,0%,0%);fill-opacity:1;" d="M 237.175781 590 L 238.445313 590 L 238.445313 590 L 237.175781 590 Z M 237.175781 590 "/>
<path style=" stroke:none;fill-rule:nonzero;fill:rgb(100%,0%,0%);fill-opacity:1;" d="M 238.445313 590 L 239.714844 590 L 239.714844 590 L 238.445313 590 Z M 238.445313 590 "/>
<path style=" stroke:none;fill-rule:nonzero;fill:rgb(100%,0%,0%);fill-opacity:1;" d="M 239.714844 590 L 240.984375 590 L 240.984375 590 L 239.714844 590 Z M 239.714844 590 "/>
<path style=" stroke:none;fill-rule:nonzero;fill:rgb(100%,0%,0%);fill-opacity:1;" d="M 240.984375 590 L 242.253906 590 L 242.253906 590 L 240.984375 590 Z M 240.984375 590 "/>
<path style=" stroke:none;fill-rule:nonzero;fill:rgb(100%,0%,0%);fill-opacity:1;" d="M 242.253906 590 L 243.523438 590 L 243.523438 590 L 242.253906 590 Z M 242.253906 590 "/>
<path style=" stroke:none;fill-rule:nonzero;fill:rgb(100%,0%,0%);fill-opacity:1;" d="M 243.523438 590 L 244.792969 590 L 244.792969 590 L 243.523438 590 Z M 243.523438 590 "/>
<path style=" stroke:none;fill-rule:nonzero;fill:rgb(100%,0%,0%);fill-opacity:1;" d="M 244.792969 589.996094 L 246.0625 589.996094 L 246.0625 590 L 244.792969 590 Z M 244.792969 589.996094 "/>
<path style=" stroke:none;fill-rule:nonzero;fill:rgb(100%,0%,0%);fill-opacity:1;" d="M 246.0625 590 L 247.332031 590 L 247.332031 590 L 246.0625 590 Z M 246.0625 590 "/>
<path style=" stroke:none;fill-rule:nonzero;fill:rgb(100%,0%,0%);fill-opacity:1;" d="M 247.332031 590 L 248.601563 590 L 248.601563 590 L 247.332031 590 Z M 247.332031 590 "/>
<path style=" stroke:none;fill-rule:nonzero;fill:rgb(100%,0%,0%);fill-opacity:1;" d="M 248.597656 589.996094 L 249.867188 589.996094 L 249.867188 590 L 248.597656 590 Z M 248.597656 589.996094 "/>
<path style=" stroke:none;fill-rule:nonzero;fill:rgb(100%,0%,0%);fill-opacity:1;" d="M 249.867188 590 L 251.136719 590 L 251.136719 590 L 249.867188 590 Z M 249.867188 590 "/>
<path style=" stroke:none;fill-rule:nonzero;fill:rgb(100%,0%,0%);fill-opacity:1;" d="M 251.136719 589.996094 L 252.40625 589.996094 L 252.40625 590 L 251.136719 590 Z M 251.136719 589.996094 "/>
<path style=" stroke:none;fill-rule:nonzero;fill:rgb(100%,0%,0%);fill-opacity:1;" d="M 252.40625 590 L 253.675781 590 L 253.675781 590 L 252.40625 590 Z M 252.40625 590 "/>
<path style=" stroke:none;fill-rule:nonzero;fill:rgb(100%,0%,0%);fill-opacity:1;" d="M 253.675781 590 L 254.945313 590 L 254.945313 590 L 253.675781 590 Z M 253.675781 590 "/>
<path style=" stroke:none;fill-rule:nonzero;fill:rgb(100%,0%,0%);fill-opacity:1;" d="M 254.945313 590 L 256.214844 590 L 256.214844 590 L 254.945313 590 Z M 254.945313 590 "/>
<path style=" stroke:none;fill-rule:nonzero;fill:rgb(100%,0%,0%);fill-opacity:1;" d="M 256.214844 590 L 257.484375 590 L 257.484375 590 L 256.214844 590 Z M 256.214844 590 "/>
<path style=" stroke:none;fill-rule:nonzero;fill:rgb(100%,0%,0%);fill-opacity:1;" d="M 257.484375 590 L 258.753906 590 L 258.753906 590 L 257.484375 590 Z M 257.484375 590 "/>
<path style=" stroke:none;fill-rule:nonzero;fill:rgb(100%,0%,0%);fill-opacity:1;" d="M 258.753906 590 L 260.023438 590 L 260.023438 590 L 258.753906 590 Z M 258.753906 590 "/>
<path style=" stroke:none;fill-rule:nonzero;fill:rgb(100%,0%,0%);fill-opacity:1;" d="M 260.023438 590 L 261.292969 590 L 261.292969 590 L 260.023438 590 Z M 260.023438 590 "/>
<path style=" stroke:none;fill-rule:nonzero;fill:rgb(100%,0%,0%);fill-opacity:1;" d="M 261.292969 589.996094 L 262.5625 589.996094 L 262.5625 590 L 261.292969 590 Z M 261.292969 589.996094 "/>
<path style=" stroke:none;fill-rule:nonzero;fill:rgb(100%,0%,0%);fill-opacity:1;" d="M 262.558594 590 L 263.828125 590 L 263.828125 590 L 262.558594 590 Z M 262.558594 590 "/>
<path style=" stroke:none;fill-rule:nonzero;fill:rgb(100%,0%,0%);fill-opacity:1;" d="M 263.828125 590 L 265.097656 590 L 265.097656 590 L 263.828125 590 Z M 263.828125 590 "/>
<path style=" stroke:none;fill-rule:nonzero;fill:rgb(100%,0%,0%);fill-opacity:1;" d="M 265.097656 590 L 266.367188 590 L 266.367188 590 L 265.097656 590 Z M 265.097656 590 "/>
<path style=" stroke:none;fill-rule:nonzero;fill:rgb(100%,0%,0%);fill-opacity:1;" d="M 266.367188 590 L 267.636719 590 L 267.636719 590 L 266.367188 590 Z M 266.367188 590 "/>
<path style=" stroke:none;fill-rule:nonzero;fill:rgb(100%,0%,0%);fill-opacity:1;" d="M 267.636719 590 L 268.90625 590 L 268.90625 590 L 267.636719 590 Z M 267.636719 590 "/>
<path style=" stroke:none;fill-rule:nonzero;fill:rgb(100%,0%,0%);fill-opacity:1;" d="M 268.90625 589.996094 L 270.175781 589.996094 L 270.175781 590 L 268.90625 590 Z M 268.90625 589.996094 "/>
<path style=" stroke:none;fill-rule:nonzero;fill:rgb(100%,0%,0%);fill-opacity:1;" d="M 270.175781 590 L 271.445313 590 L 271.445313 590 L 270.175781 590 Z M 270.175781 590 "/>
<path style=" stroke:none;fill-rule:nonzero;fill:rgb(100%,0%,0%);fill-opacity:1;" d="M 271.445313 590 L 272.714844 590 L 272.714844 590 L 271.445313 590 Z M 271.445313 590 "/>
<path style=" stroke:none;fill-rule:nonzero;fill:rgb(100%,0%,0%);fill-opacity:1;" d="M 272.714844 590 L 273.984375 590 L 273.984375 590 L 272.714844 590 Z M 272.714844 590 "/>
<path style=" stroke:none;fill-rule:nonzero;fill:rgb(100%,0%,0%);fill-opacity:1;" d="M 273.984375 590 L 275.253906 590 L 275.253906 590 L 273.984375 590 Z M 273.984375 590 "/>
<path style=" stroke:none;fill-rule:nonzero;fill:rgb(100%,0%,0%);fill-opacity:1;" d="M 275.25 590 L 276.519531 590 L 276.519531 590 L 275.25 590 Z M 275.25 590 "/>
<path style=" stroke:none;fill-rule:nonzero;fill:rgb(100%,0%,0%);fill-opacity:1;" d="M 276.519531 590 L 277.789063 590 L 277.789063 590 L 276.519531 590 Z M 276.519531 590 "/>
<path style=" stroke:none;fill-rule:nonzero;fill:rgb(100%,0%,0%);fill-opacity:1;" d="M 277.789063 590 L 279.058594 590 L 279.058594 590 L 277.789063 590 Z M 277.789063 590 "/>
<path style=" stroke:none;fill-rule:nonzero;fill:rgb(100%,0%,0%);fill-opacity:1;" d="M 279.058594 590 L 280.328125 590 L 280.328125 590 L 279.058594 590 Z M 279.058594 590 "/>
<path style=" stroke:none;fill-rule:nonzero;fill:rgb(100%,0%,0%);fill-opacity:1;" d="M 280.328125 590 L 281.597656 590 L 281.597656 590 L 280.328125 590 Z M 280.328125 590 "/>
<path style=" stroke:none;fill-rule:nonzero;fill:rgb(100%,0%,0%);fill-opacity:1;" d="M 281.597656 590 L 282.867188 590 L 282.867188 590 L 281.597656 590 Z M 281.597656 590 "/>
<path style=" stroke:none;fill-rule:nonzero;fill:rgb(100%,0%,0%);fill-opacity:1;" d="M 282.867188 590 L 284.136719 590 L 284.136719 590 L 282.867188 590 Z M 282.867188 590 "/>
<path style=" stroke:none;fill-rule:nonzero;fill:rgb(100%,0%,0%);fill-opacity:1;" d="M 284.136719 590 L 285.40625 590 L 285.40625 590 L 284.136719 590 Z M 284.136719 590 "/>
<path style=" stroke:none;fill-rule:nonzero;fill:rgb(100%,0%,0%);fill-opacity:1;" d="M 285.40625 590 L 286.675781 590 L 286.675781 590 L 285.40625 590 Z M 285.40625 590 "/>
<path style=" stroke:none;fill-rule:nonzero;fill:rgb(100%,0%,0%);fill-opacity:1;" d="M 286.675781 590 L 287.945313 590 L 287.945313 590 L 286.675781 590 Z M 286.675781 590 "/>
<path style=" stroke:none;fill-rule:nonzero;fill:rgb(100%,0%,0%);fill-opacity:1;" d="M 287.941406 589.996094 L 289.210938 589.996094 L 289.210938 590 L 287.941406 590 Z M 287.941406 589.996094 "/>
<path style=" stroke:none;fill-rule:nonzero;fill:rgb(100%,0%,0%);fill-opacity:1;" d="M 289.210938 590 L 290.480469 590 L 290.480469 590 L 289.210938 590 Z M 289.210938 590 "/>
<path style=" stroke:none;fill-rule:nonzero;fill:rgb(100%,0%,0%);fill-opacity:1;" d="M 290.480469 590 L 291.75 590 L 291.75 590 L 290.480469 590 Z M 290.480469 590 "/>
<path style=" stroke:none;fill-rule:nonzero;fill:rgb(100%,0%,0%);fill-opacity:1;" d="M 291.75 590 L 293.019531 590 L 293.019531 590 L 291.75 590 Z M 291.75 590 "/>
<path style=" stroke:none;fill-rule:nonzero;fill:rgb(100%,0%,0%);fill-opacity:1;" d="M 293.019531 590 L 294.289063 590 L 294.289063 590 L 293.019531 590 Z M 293.019531 590 "/>
<path style=" stroke:none;fill-rule:nonzero;fill:rgb(100%,0%,0%);fill-opacity:1;" d="M 294.289063 589.996094 L 295.558594 589.996094 L 295.558594 590 L 294.289063 590 Z M 294.289063 589.996094 "/>
<path style=" stroke:none;fill-rule:nonzero;fill:rgb(100%,0%,0%);fill-opacity:1;" d="M 295.558594 590 L 296.828125 590 L 296.828125 590 L 295.558594 590 Z M 295.558594 590 "/>
<path style=" stroke:none;fill-rule:nonzero;fill:rgb(100%,0%,0%);fill-opacity:1;" d="M 296.828125 589.996094 L 298.097656 589.996094 L 298.097656 590 L 296.828125 590 Z M 296.828125 589.996094 "/>
<path style=" stroke:none;fill-rule:nonzero;fill:rgb(100%,0%,0%);fill-opacity:1;" d="M 298.097656 590 L 299.367188 590 L 299.367188 590 L 298.097656 590 Z M 298.097656 590 "/>
<path style=" stroke:none;fill-rule:nonzero;fill:rgb(100%,0%,0%);fill-opacity:1;" d="M 299.367188 589.996094 L 300.636719 589.996094 L 300.636719 590 L 299.367188 590 Z M 299.367188 589.996094 "/>
<path style=" stroke:none;fill-rule:nonzero;fill:rgb(100%,0%,0%);fill-opacity:1;" d="M 300.632813 589.996094 L 301.902344 589.996094 L 301.902344 590 L 300.632813 590 Z M 300.632813 589.996094 "/>
<path style=" stroke:none;fill-rule:nonzero;fill:rgb(100%,0%,0%);fill-opacity:1;" d="M 301.902344 590 L 303.171875 590 L 303.171875 590 L 301.902344 590 Z M 301.902344 590 "/>
<path style=" stroke:none;fill-rule:nonzero;fill:rgb(100%,0%,0%);fill-opacity:1;" d="M 303.171875 589.996094 L 304.441406 589.996094 L 304.441406 590 L 303.171875 590 Z M 303.171875 589.996094 "/>
<path style=" stroke:none;fill-rule:nonzero;fill:rgb(100%,0%,0%);fill-opacity:1;" d="M 304.441406 590 L 305.710938 590 L 305.710938 590 L 304.441406 590 Z M 304.441406 590 "/>
<path style=" stroke:none;fill-rule:nonzero;fill:rgb(100%,0%,0%);fill-opacity:1;" d="M 305.710938 590 L 306.980469 590 L 306.980469 590 L 305.710938 590 Z M 305.710938 590 "/>
<path style=" stroke:none;fill-rule:nonzero;fill:rgb(100%,0%,0%);fill-opacity:1;" d="M 306.980469 590 L 308.25 590 L 308.25 590 L 306.980469 590 Z M 306.980469 590 "/>
<path style=" stroke:none;fill-rule:nonzero;fill:rgb(100%,0%,0%);fill-opacity:1;" d="M 308.25 590 L 309.519531 590 L 309.519531 590 L 308.25 590 Z M 308.25 590 "/>
<path style=" stroke:none;fill-rule:nonzero;fill:rgb(100%,0%,0%);fill-opacity:1;" d="M 309.519531 590 L 310.789063 590 L 310.789063 590 L 309.519531 590 Z M 309.519531 590 "/>
<path style=" stroke:none;fill-rule:nonzero;fill:rgb(100%,0%,0%);fill-opacity:1;" d="M 310.789063 590 L 312.058594 590 L 312.058594 590 L 310.789063 590 Z M 310.789063 590 "/>
<path style=" stroke:none;fill-rule:nonzero;fill:rgb(100%,0%,0%);fill-opacity:1;" d="M 312.058594 590 L 313.328125 590 L 313.328125 590 L 312.058594 590 Z M 312.058594 590 "/>
<path style=" stroke:none;fill-rule:nonzero;fill:rgb(100%,0%,0%);fill-opacity:1;" d="M 313.324219 590 L 314.59375 590 L 314.59375 590 L 313.324219 590 Z M 313.324219 590 "/>
<path style=" stroke:none;fill-rule:nonzero;fill:rgb(100%,0%,0%);fill-opacity:1;" d="M 314.59375 590 L 315.863281 590 L 315.863281 590 L 314.59375 590 Z M 314.59375 590 "/>
<path style=" stroke:none;fill-rule:nonzero;fill:rgb(100%,0%,0%);fill-opacity:1;" d="M 315.863281 590 L 317.132813 590 L 317.132813 590 L 315.863281 590 Z M 315.863281 590 "/>
<path style=" stroke:none;fill-rule:nonzero;fill:rgb(100%,0%,0%);fill-opacity:1;" d="M 317.132813 590 L 318.402344 590 L 318.402344 590 L 317.132813 590 Z M 317.132813 590 "/>
<path style=" stroke:none;fill-rule:nonzero;fill:rgb(100%,0%,0%);fill-opacity:1;" d="M 318.402344 590 L 319.671875 590 L 319.671875 590 L 318.402344 590 Z M 318.402344 590 "/>
<path style=" stroke:none;fill-rule:nonzero;fill:rgb(100%,0%,0%);fill-opacity:1;" d="M 319.671875 590 L 320.941406 590 L 320.941406 590 L 319.671875 590 Z M 319.671875 590 "/>
<path style=" stroke:none;fill-rule:nonzero;fill:rgb(100%,0%,0%);fill-opacity:1;" d="M 320.941406 590 L 322.210938 590 L 322.210938 590 L 320.941406 590 Z M 320.941406 590 "/>
<path style=" stroke:none;fill-rule:nonzero;fill:rgb(100%,0%,0%);fill-opacity:1;" d="M 322.210938 590 L 323.480469 590 L 323.480469 590 L 322.210938 590 Z M 322.210938 590 "/>
<path style=" stroke:none;fill-rule:nonzero;fill:rgb(100%,0%,0%);fill-opacity:1;" d="M 323.480469 590 L 324.75 590 L 324.75 590 L 323.480469 590 Z M 323.480469 590 "/>
<path style=" stroke:none;fill-rule:nonzero;fill:rgb(100%,0%,0%);fill-opacity:1;" d="M 324.75 590 L 326.019531 590 L 326.019531 590 L 324.75 590 Z M 324.75 590 "/>
<path style=" stroke:none;fill-rule:nonzero;fill:rgb(100%,0%,0%);fill-opacity:1;" d="M 326.015625 590 L 327.285156 590 L 327.285156 590 L 326.015625 590 Z M 326.015625 590 "/>
<path style=" stroke:none;fill-rule:nonzero;fill:rgb(100%,0%,0%);fill-opacity:1;" d="M 327.285156 590 L 328.554688 590 L 328.554688 590 L 327.285156 590 Z M 327.285156 590 "/>
<path style=" stroke:none;fill-rule:nonzero;fill:rgb(100%,0%,0%);fill-opacity:1;" d="M 328.554688 590 L 329.824219 590 L 329.824219 590 L 328.554688 590 Z M 328.554688 590 "/>
<path style=" stroke:none;fill-rule:nonzero;fill:rgb(100%,0%,0%);fill-opacity:1;" d="M 329.824219 590 L 331.09375 590 L 331.09375 590 L 329.824219 590 Z M 329.824219 590 "/>
<path style=" stroke:none;fill-rule:nonzero;fill:rgb(100%,0%,0%);fill-opacity:1;" d="M 331.09375 590 L 332.363281 590 L 332.363281 590 L 331.09375 590 Z M 331.09375 590 "/>
<path style=" stroke:none;fill-rule:nonzero;fill:rgb(100%,0%,0%);fill-opacity:1;" d="M 332.363281 590 L 333.632813 590 L 333.632813 590 L 332.363281 590 Z M 332.363281 590 "/>
<path style=" stroke:none;fill-rule:nonzero;fill:rgb(100%,0%,0%);fill-opacity:1;" d="M 333.632813 590 L 334.902344 590 L 334.902344 590 L 333.632813 590 Z M 333.632813 590 "/>
<path style=" stroke:none;fill-rule:nonzero;fill:rgb(100%,0%,0%);fill-opacity:1;" d="M 334.902344 590 L 336.171875 590 L 336.171875 590 L 334.902344 590 Z M 334.902344 590 "/>
<path style=" stroke:none;fill-rule:nonzero;fill:rgb(100%,0%,0%);fill-opacity:1;" d="M 336.171875 590 L 337.441406 590 L 337.441406 590 L 336.171875 590 Z M 336.171875 590 "/>
<path style=" stroke:none;fill-rule:nonzero;fill:rgb(100%,0%,0%);fill-opacity:1;" d="M 337.441406 590 L 338.710938 590 L 338.710938 590 L 337.441406 590 Z M 337.441406 590 "/>
<path style=" stroke:none;fill-rule:nonzero;fill:rgb(100%,0%,0%);fill-opacity:1;" d="M 338.707031 590 L 339.976563 590 L 339.976563 590 L 338.707031 590 Z M 338.707031 590 "/>
<path style=" stroke:none;fill-rule:nonzero;fill:rgb(100%,0%,0%);fill-opacity:1;" d="M 339.976563 590 L 341.246094 590 L 341.246094 590 L 339.976563 590 Z M 339.976563 590 "/>
<path style=" stroke:none;fill-rule:nonzero;fill:rgb(100%,0%,0%);fill-opacity:1;" d="M 341.246094 590 L 342.515625 590 L 342.515625 590 L 341.246094 590 Z M 341.246094 590 "/>
<path style=" stroke:none;fill-rule:nonzero;fill:rgb(100%,0%,0%);fill-opacity:1;" d="M 342.515625 590 L 343.785156 590 L 343.785156 590 L 342.515625 590 Z M 342.515625 590 "/>
<path style=" stroke:none;fill-rule:nonzero;fill:rgb(100%,0%,0%);fill-opacity:1;" d="M 343.785156 590 L 345.054688 590 L 345.054688 590 L 343.785156 590 Z M 343.785156 590 "/>
<path style=" stroke:none;fill-rule:nonzero;fill:rgb(100%,0%,0%);fill-opacity:1;" d="M 345.054688 590 L 346.324219 590 L 346.324219 590 L 345.054688 590 Z M 345.054688 590 "/>
<path style=" stroke:none;fill-rule:nonzero;fill:rgb(100%,0%,0%);fill-opacity:1;" d="M 346.324219 590 L 347.59375 590 L 347.59375 590 L 346.324219 590 Z M 346.324219 590 "/>
<path style=" stroke:none;fill-rule:nonzero;fill:rgb(100%,0%,0%);fill-opacity:1;" d="M 347.59375 590 L 348.863281 590 L 348.863281 590 L 347.59375 590 Z M 347.59375 590 "/>
<path style=" stroke:none;fill-rule:nonzero;fill:rgb(100%,0%,0%);fill-opacity:1;" d="M 348.863281 590 L 350.132813 590 L 350.132813 590 L 348.863281 590 Z M 348.863281 590 "/>
<path style=" stroke:none;fill-rule:nonzero;fill:rgb(100%,0%,0%);fill-opacity:1;" d="M 350.132813 590 L 351.402344 590 L 351.402344 590 L 350.132813 590 Z M 350.132813 590 "/>
<path style=" stroke:none;fill-rule:nonzero;fill:rgb(100%,0%,0%);fill-opacity:1;" d="M 351.402344 590 L 352.671875 590 L 352.671875 590 L 351.402344 590 Z M 351.402344 590 "/>
<path style=" stroke:none;fill-rule:nonzero;fill:rgb(100%,0%,0%);fill-opacity:1;" d="M 352.667969 590 L 353.9375 590 L 353.9375 590 L 352.667969 590 Z M 352.667969 590 "/>
<path style=" stroke:none;fill-rule:nonzero;fill:rgb(100%,0%,0%);fill-opacity:1;" d="M 353.9375 590 L 355.207031 590 L 355.207031 590 L 353.9375 590 Z M 353.9375 590 "/>
<path style=" stroke:none;fill-rule:nonzero;fill:rgb(100%,0%,0%);fill-opacity:1;" d="M 355.207031 590 L 356.476563 590 L 356.476563 590 L 355.207031 590 Z M 355.207031 590 "/>
<path style=" stroke:none;fill-rule:nonzero;fill:rgb(100%,0%,0%);fill-opacity:1;" d="M 356.476563 590 L 357.746094 590 L 357.746094 590 L 356.476563 590 Z M 356.476563 590 "/>
<path style=" stroke:none;fill-rule:nonzero;fill:rgb(100%,0%,0%);fill-opacity:1;" d="M 357.746094 590 L 359.015625 590 L 359.015625 590 L 357.746094 590 Z M 357.746094 590 "/>
<path style=" stroke:none;fill-rule:nonzero;fill:rgb(100%,0%,0%);fill-opacity:1;" d="M 359.015625 590 L 360.285156 590 L 360.285156 590 L 359.015625 590 Z M 359.015625 590 "/>
<path style=" stroke:none;fill-rule:nonzero;fill:rgb(100%,0%,0%);fill-opacity:1;" d="M 360.285156 590 L 361.554688 590 L 361.554688 590 L 360.285156 590 Z M 360.285156 590 "/>
<path style=" stroke:none;fill-rule:nonzero;fill:rgb(100%,0%,0%);fill-opacity:1;" d="M 361.554688 590 L 362.824219 590 L 362.824219 590 L 361.554688 590 Z M 361.554688 590 "/>
<path style=" stroke:none;fill-rule:nonzero;fill:rgb(100%,0%,0%);fill-opacity:1;" d="M 362.824219 590 L 364.09375 590 L 364.09375 590 L 362.824219 590 Z M 362.824219 590 "/>
<path style=" stroke:none;fill-rule:nonzero;fill:rgb(100%,0%,0%);fill-opacity:1;" d="M 364.09375 590 L 365.363281 590 L 365.363281 590 L 364.09375 590 Z M 364.09375 590 "/>
<path style=" stroke:none;fill-rule:nonzero;fill:rgb(100%,0%,0%);fill-opacity:1;" d="M 365.359375 590 L 366.628906 590 L 366.628906 590 L 365.359375 590 Z M 365.359375 590 "/>
<path style=" stroke:none;fill-rule:nonzero;fill:rgb(100%,0%,0%);fill-opacity:1;" d="M 366.628906 590 L 367.898438 590 L 367.898438 590 L 366.628906 590 Z M 366.628906 590 "/>
<path style=" stroke:none;fill-rule:nonzero;fill:rgb(100%,0%,0%);fill-opacity:1;" d="M 367.898438 589.996094 L 369.167969 589.996094 L 369.167969 590 L 367.898438 590 Z M 367.898438 589.996094 "/>
<path style=" stroke:none;fill-rule:nonzero;fill:rgb(100%,0%,0%);fill-opacity:1;" d="M 369.167969 590 L 370.4375 590 L 370.4375 590 L 369.167969 590 Z M 369.167969 590 "/>
<path style=" stroke:none;fill-rule:nonzero;fill:rgb(100%,0%,0%);fill-opacity:1;" d="M 370.4375 590 L 371.707031 590 L 371.707031 590 L 370.4375 590 Z M 370.4375 590 "/>
<path style=" stroke:none;fill-rule:nonzero;fill:rgb(100%,0%,0%);fill-opacity:1;" d="M 371.707031 590 L 372.976563 590 L 372.976563 590 L 371.707031 590 Z M 371.707031 590 "/>
<path style=" stroke:none;fill-rule:nonzero;fill:rgb(100%,0%,0%);fill-opacity:1;" d="M 372.976563 590 L 374.246094 590 L 374.246094 590 L 372.976563 590 Z M 372.976563 590 "/>
<path style=" stroke:none;fill-rule:nonzero;fill:rgb(100%,0%,0%);fill-opacity:1;" d="M 374.246094 590 L 375.515625 590 L 375.515625 590 L 374.246094 590 Z M 374.246094 590 "/>
<path style=" stroke:none;fill-rule:nonzero;fill:rgb(100%,0%,0%);fill-opacity:1;" d="M 375.515625 590 L 376.785156 590 L 376.785156 590 L 375.515625 590 Z M 375.515625 590 "/>
<path style=" stroke:none;fill-rule:nonzero;fill:rgb(100%,0%,0%);fill-opacity:1;" d="M 376.785156 590 L 378.054688 590 L 378.054688 590 L 376.785156 590 Z M 376.785156 590 "/>
<path style=" stroke:none;fill-rule:nonzero;fill:rgb(100%,0%,0%);fill-opacity:1;" d="M 378.050781 590 L 379.320313 590 L 379.320313 590 L 378.050781 590 Z M 378.050781 590 "/>
<path style=" stroke:none;fill-rule:nonzero;fill:rgb(100%,0%,0%);fill-opacity:1;" d="M 379.320313 590 L 380.589844 590 L 380.589844 590 L 379.320313 590 Z M 379.320313 590 "/>
<path style=" stroke:none;fill-rule:nonzero;fill:rgb(100%,0%,0%);fill-opacity:1;" d="M 380.589844 590 L 381.859375 590 L 381.859375 590 L 380.589844 590 Z M 380.589844 590 "/>
<path style=" stroke:none;fill-rule:nonzero;fill:rgb(100%,0%,0%);fill-opacity:1;" d="M 381.859375 590 L 383.128906 590 L 383.128906 590 L 381.859375 590 Z M 381.859375 590 "/>
<path style=" stroke:none;fill-rule:nonzero;fill:rgb(100%,0%,0%);fill-opacity:1;" d="M 383.128906 590 L 384.398438 590 L 384.398438 590 L 383.128906 590 Z M 383.128906 590 "/>
<path style=" stroke:none;fill-rule:nonzero;fill:rgb(100%,0%,0%);fill-opacity:1;" d="M 384.398438 590 L 385.667969 590 L 385.667969 590 L 384.398438 590 Z M 384.398438 590 "/>
<path style=" stroke:none;fill-rule:nonzero;fill:rgb(100%,0%,0%);fill-opacity:1;" d="M 385.667969 590 L 386.9375 590 L 386.9375 590 L 385.667969 590 Z M 385.667969 590 "/>
<path style=" stroke:none;fill-rule:nonzero;fill:rgb(100%,0%,0%);fill-opacity:1;" d="M 386.9375 590 L 388.207031 590 L 388.207031 590 L 386.9375 590 Z M 386.9375 590 "/>
<path style=" stroke:none;fill-rule:nonzero;fill:rgb(100%,0%,0%);fill-opacity:1;" d="M 388.207031 590 L 389.476563 590 L 389.476563 590 L 388.207031 590 Z M 388.207031 590 "/>
<path style=" stroke:none;fill-rule:nonzero;fill:rgb(100%,0%,0%);fill-opacity:1;" d="M 389.476563 590 L 390.746094 590 L 390.746094 590 L 389.476563 590 Z M 389.476563 590 "/>
<path style=" stroke:none;fill-rule:nonzero;fill:rgb(100%,0%,0%);fill-opacity:1;" d="M 390.742188 590 L 392.011719 590 L 392.011719 590 L 390.742188 590 Z M 390.742188 590 "/>
<path style=" stroke:none;fill-rule:nonzero;fill:rgb(100%,0%,0%);fill-opacity:1;" d="M 392.011719 590 L 393.28125 590 L 393.28125 590 L 392.011719 590 Z M 392.011719 590 "/>
<path style=" stroke:none;fill-rule:nonzero;fill:rgb(100%,0%,0%);fill-opacity:1;" d="M 393.28125 590 L 394.550781 590 L 394.550781 590 L 393.28125 590 Z M 393.28125 590 "/>
<path style=" stroke:none;fill-rule:nonzero;fill:rgb(100%,0%,0%);fill-opacity:1;" d="M 394.550781 590 L 395.820313 590 L 395.820313 590 L 394.550781 590 Z M 394.550781 590 "/>
<path style=" stroke:none;fill-rule:nonzero;fill:rgb(100%,0%,0%);fill-opacity:1;" d="M 395.820313 590 L 397.089844 590 L 397.089844 590 L 395.820313 590 Z M 395.820313 590 "/>
<path style=" stroke:none;fill-rule:nonzero;fill:rgb(100%,0%,0%);fill-opacity:1;" d="M 397.089844 590 L 398.359375 590 L 398.359375 590 L 397.089844 590 Z M 397.089844 590 "/>
<path style=" stroke:none;fill-rule:nonzero;fill:rgb(100%,0%,0%);fill-opacity:1;" d="M 398.359375 590 L 399.628906 590 L 399.628906 590 L 398.359375 590 Z M 398.359375 590 "/>
<path style=" stroke:none;fill-rule:nonzero;fill:rgb(100%,0%,0%);fill-opacity:1;" d="M 399.628906 590 L 400.898438 590 L 400.898438 590 L 399.628906 590 Z M 399.628906 590 "/>
<path style=" stroke:none;fill-rule:nonzero;fill:rgb(100%,0%,0%);fill-opacity:1;" d="M 400.898438 590 L 402.167969 590 L 402.167969 590 L 400.898438 590 Z M 400.898438 590 "/>
<path style=" stroke:none;fill-rule:nonzero;fill:rgb(100%,0%,0%);fill-opacity:1;" d="M 402.167969 590 L 403.4375 590 L 403.4375 590 L 402.167969 590 Z M 402.167969 590 "/>
<path style=" stroke:none;fill-rule:nonzero;fill:rgb(100%,0%,0%);fill-opacity:1;" d="M 403.433594 590 L 404.703125 590 L 404.703125 590 L 403.433594 590 Z M 403.433594 590 "/>
<path style=" stroke:none;fill-rule:nonzero;fill:rgb(100%,0%,0%);fill-opacity:1;" d="M 404.703125 590 L 405.972656 590 L 405.972656 590 L 404.703125 590 Z M 404.703125 590 "/>
<path style=" stroke:none;fill-rule:nonzero;fill:rgb(100%,0%,0%);fill-opacity:1;" d="M 405.972656 590 L 407.242188 590 L 407.242188 590 L 405.972656 590 Z M 405.972656 590 "/>
<path style=" stroke:none;fill-rule:nonzero;fill:rgb(100%,0%,0%);fill-opacity:1;" d="M 407.242188 590 L 408.511719 590 L 408.511719 590 L 407.242188 590 Z M 407.242188 590 "/>
<path style=" stroke:none;fill-rule:nonzero;fill:rgb(100%,0%,0%);fill-opacity:1;" d="M 408.511719 590 L 409.78125 590 L 409.78125 590 L 408.511719 590 Z M 408.511719 590 "/>
<path style=" stroke:none;fill-rule:nonzero;fill:rgb(100%,0%,0%);fill-opacity:1;" d="M 409.78125 590 L 411.050781 590 L 411.050781 590 L 409.78125 590 Z M 409.78125 590 "/>
<path style=" stroke:none;fill-rule:nonzero;fill:rgb(100%,0%,0%);fill-opacity:1;" d="M 411.050781 590 L 412.320313 590 L 412.320313 590 L 411.050781 590 Z M 411.050781 590 "/>
<path style=" stroke:none;fill-rule:nonzero;fill:rgb(100%,0%,0%);fill-opacity:1;" d="M 412.320313 590 L 413.589844 590 L 413.589844 590 L 412.320313 590 Z M 412.320313 590 "/>
<path style=" stroke:none;fill-rule:nonzero;fill:rgb(100%,0%,0%);fill-opacity:1;" d="M 413.589844 590 L 414.859375 590 L 414.859375 590 L 413.589844 590 Z M 413.589844 590 "/>
<path style=" stroke:none;fill-rule:nonzero;fill:rgb(100%,0%,0%);fill-opacity:1;" d="M 414.859375 590 L 416.128906 590 L 416.128906 590 L 414.859375 590 Z M 414.859375 590 "/>
<path style=" stroke:none;fill-rule:nonzero;fill:rgb(100%,0%,0%);fill-opacity:1;" d="M 416.125 590 L 417.394531 590 L 417.394531 590 L 416.125 590 Z M 416.125 590 "/>
<path style=" stroke:none;fill-rule:nonzero;fill:rgb(100%,0%,0%);fill-opacity:1;" d="M 417.394531 590 L 418.664063 590 L 418.664063 590 L 417.394531 590 Z M 417.394531 590 "/>
<path style=" stroke:none;fill-rule:nonzero;fill:rgb(100%,0%,0%);fill-opacity:1;" d="M 418.664063 590 L 419.933594 590 L 419.933594 590 L 418.664063 590 Z M 418.664063 590 "/>
<path style=" stroke:none;fill-rule:nonzero;fill:rgb(100%,0%,0%);fill-opacity:1;" d="M 419.933594 590 L 421.203125 590 L 421.203125 590 L 419.933594 590 Z M 419.933594 590 "/>
<path style=" stroke:none;fill-rule:nonzero;fill:rgb(100%,0%,0%);fill-opacity:1;" d="M 421.203125 590 L 422.472656 590 L 422.472656 590 L 421.203125 590 Z M 421.203125 590 "/>
<path style=" stroke:none;fill-rule:nonzero;fill:rgb(100%,0%,0%);fill-opacity:1;" d="M 422.472656 590 L 423.742188 590 L 423.742188 590 L 422.472656 590 Z M 422.472656 590 "/>
<path style=" stroke:none;fill-rule:nonzero;fill:rgb(100%,0%,0%);fill-opacity:1;" d="M 423.742188 590 L 425.011719 590 L 425.011719 590 L 423.742188 590 Z M 423.742188 590 "/>
<path style=" stroke:none;fill-rule:nonzero;fill:rgb(100%,0%,0%);fill-opacity:1;" d="M 425.011719 590 L 426.28125 590 L 426.28125 590 L 425.011719 590 Z M 425.011719 590 "/>
<path style=" stroke:none;fill-rule:nonzero;fill:rgb(100%,0%,0%);fill-opacity:1;" d="M 426.28125 590 L 427.550781 590 L 427.550781 590 L 426.28125 590 Z M 426.28125 590 "/>
<path style=" stroke:none;fill-rule:nonzero;fill:rgb(100%,0%,0%);fill-opacity:1;" d="M 427.550781 590 L 428.820313 590 L 428.820313 590 L 427.550781 590 Z M 427.550781 590 "/>
<path style=" stroke:none;fill-rule:nonzero;fill:rgb(100%,0%,0%);fill-opacity:1;" d="M 428.820313 590 L 430.089844 590 L 430.089844 590 L 428.820313 590 Z M 428.820313 590 "/>
<path style=" stroke:none;fill-rule:nonzero;fill:rgb(100%,0%,0%);fill-opacity:1;" d="M 430.085938 590 L 431.355469 590 L 431.355469 590 L 430.085938 590 Z M 430.085938 590 "/>
<path style=" stroke:none;fill-rule:nonzero;fill:rgb(100%,0%,0%);fill-opacity:1;" d="M 431.355469 590 L 432.625 590 L 432.625 590 L 431.355469 590 Z M 431.355469 590 "/>
<path style=" stroke:none;fill-rule:nonzero;fill:rgb(100%,0%,0%);fill-opacity:1;" d="M 432.625 590 L 433.894531 590 L 433.894531 590 L 432.625 590 Z M 432.625 590 "/>
<path style=" stroke:none;fill-rule:nonzero;fill:rgb(100%,0%,0%);fill-opacity:1;" d="M 433.894531 590 L 435.164063 590 L 435.164063 590 L 433.894531 590 Z M 433.894531 590 "/>
<path style=" stroke:none;fill-rule:nonzero;fill:rgb(100%,0%,0%);fill-opacity:1;" d="M 435.164063 590 L 436.433594 590 L 436.433594 590 L 435.164063 590 Z M 435.164063 590 "/>
<path style=" stroke:none;fill-rule:nonzero;fill:rgb(100%,0%,0%);fill-opacity:1;" d="M 436.433594 590 L 437.703125 590 L 437.703125 590 L 436.433594 590 Z M 436.433594 590 "/>
<path style=" stroke:none;fill-rule:nonzero;fill:rgb(100%,0%,0%);fill-opacity:1;" d="M 437.703125 590 L 438.972656 590 L 438.972656 590 L 437.703125 590 Z M 437.703125 590 "/>
<path style=" stroke:none;fill-rule:nonzero;fill:rgb(100%,0%,0%);fill-opacity:1;" d="M 438.972656 590 L 440.242188 590 L 440.242188 590 L 438.972656 590 Z M 438.972656 590 "/>
<path style=" stroke:none;fill-rule:nonzero;fill:rgb(100%,0%,0%);fill-opacity:1;" d="M 440.242188 590 L 441.511719 590 L 441.511719 590 L 440.242188 590 Z M 440.242188 590 "/>
<path style=" stroke:none;fill-rule:nonzero;fill:rgb(100%,0%,0%);fill-opacity:1;" d="M 441.511719 590 L 442.78125 590 L 442.78125 590 L 441.511719 590 Z M 441.511719 590 "/>
<path style=" stroke:none;fill-rule:nonzero;fill:rgb(100%,0%,0%);fill-opacity:1;" d="M 442.777344 590 L 444.046875 590 L 444.046875 590 L 442.777344 590 Z M 442.777344 590 "/>
<path style=" stroke:none;fill-rule:nonzero;fill:rgb(100%,0%,0%);fill-opacity:1;" d="M 444.046875 590 L 445.316406 590 L 445.316406 590 L 444.046875 590 Z M 444.046875 590 "/>
<path style=" stroke:none;fill-rule:nonzero;fill:rgb(100%,0%,0%);fill-opacity:1;" d="M 445.316406 590 L 446.585938 590 L 446.585938 590 L 445.316406 590 Z M 445.316406 590 "/>
<path style=" stroke:none;fill-rule:nonzero;fill:rgb(100%,0%,0%);fill-opacity:1;" d="M 446.585938 590 L 447.855469 590 L 447.855469 590 L 446.585938 590 Z M 446.585938 590 "/>
<path style=" stroke:none;fill-rule:nonzero;fill:rgb(100%,0%,0%);fill-opacity:1;" d="M 447.855469 590 L 449.125 590 L 449.125 590 L 447.855469 590 Z M 447.855469 590 "/>
<path style=" stroke:none;fill-rule:nonzero;fill:rgb(100%,0%,0%);fill-opacity:1;" d="M 449.125 590 L 450.394531 590 L 450.394531 590 L 449.125 590 Z M 449.125 590 "/>
<path style=" stroke:none;fill-rule:nonzero;fill:rgb(100%,0%,0%);fill-opacity:1;" d="M 450.394531 590 L 451.664063 590 L 451.664063 590 L 450.394531 590 Z M 450.394531 590 "/>
<path style=" stroke:none;fill-rule:nonzero;fill:rgb(100%,0%,0%);fill-opacity:1;" d="M 451.664063 590 L 452.933594 590 L 452.933594 590 L 451.664063 590 Z M 451.664063 590 "/>
<path style=" stroke:none;fill-rule:nonzero;fill:rgb(100%,0%,0%);fill-opacity:1;" d="M 452.933594 590 L 454.203125 590 L 454.203125 590 L 452.933594 590 Z M 452.933594 590 "/>
<path style=" stroke:none;fill-rule:nonzero;fill:rgb(100%,0%,0%);fill-opacity:1;" d="M 454.203125 590 L 455.472656 590 L 455.472656 590 L 454.203125 590 Z M 454.203125 590 "/>
<path style=" stroke:none;fill-rule:nonzero;fill:rgb(100%,0%,0%);fill-opacity:1;" d="M 455.46875 590 L 456.738281 590 L 456.738281 590 L 455.46875 590 Z M 455.46875 590 "/>
<path style=" stroke:none;fill-rule:nonzero;fill:rgb(100%,0%,0%);fill-opacity:1;" d="M 456.738281 590 L 458.007813 590 L 458.007813 590 L 456.738281 590 Z M 456.738281 590 "/>
<path style=" stroke:none;fill-rule:nonzero;fill:rgb(100%,0%,0%);fill-opacity:1;" d="M 458.007813 590 L 459.277344 590 L 459.277344 590 L 458.007813 590 Z M 458.007813 590 "/>
<path style=" stroke:none;fill-rule:nonzero;fill:rgb(100%,0%,0%);fill-opacity:1;" d="M 459.277344 590 L 460.546875 590 L 460.546875 590 L 459.277344 590 Z M 459.277344 590 "/>
<path style=" stroke:none;fill-rule:nonzero;fill:rgb(100%,0%,0%);fill-opacity:1;" d="M 460.546875 590 L 461.816406 590 L 461.816406 590 L 460.546875 590 Z M 460.546875 590 "/>
<path style=" stroke:none;fill-rule:nonzero;fill:rgb(100%,0%,0%);fill-opacity:1;" d="M 461.816406 590 L 463.085938 590 L 463.085938 590 L 461.816406 590 Z M 461.816406 590 "/>
<path style=" stroke:none;fill-rule:nonzero;fill:rgb(100%,0%,0%);fill-opacity:1;" d="M 463.085938 590 L 464.355469 590 L 464.355469 590 L 463.085938 590 Z M 463.085938 590 "/>
<path style=" stroke:none;fill-rule:nonzero;fill:rgb(100%,0%,0%);fill-opacity:1;" d="M 464.355469 590 L 465.625 590 L 465.625 590 L 464.355469 590 Z M 464.355469 590 "/>
<path style=" stroke:none;fill-rule:nonzero;fill:rgb(100%,0%,0%);fill-opacity:1;" d="M 465.625 590 L 466.894531 590 L 466.894531 590 L 465.625 590 Z M 465.625 590 "/>
<path style=" stroke:none;fill-rule:nonzero;fill:rgb(100%,0%,0%);fill-opacity:1;" d="M 466.894531 590 L 468.164063 590 L 468.164063 590 L 466.894531 590 Z M 466.894531 590 "/>
<path style=" stroke:none;fill-rule:nonzero;fill:rgb(100%,0%,0%);fill-opacity:1;" d="M 468.160156 590 L 469.429688 590 L 469.429688 590 L 468.160156 590 Z M 468.160156 590 "/>
<path style=" stroke:none;fill-rule:nonzero;fill:rgb(100%,0%,0%);fill-opacity:1;" d="M 469.429688 590 L 470.699219 590 L 470.699219 590 L 469.429688 590 Z M 469.429688 590 "/>
<path style=" stroke:none;fill-rule:nonzero;fill:rgb(100%,0%,0%);fill-opacity:1;" d="M 470.699219 590 L 471.96875 590 L 471.96875 590 L 470.699219 590 Z M 470.699219 590 "/>
<path style=" stroke:none;fill-rule:nonzero;fill:rgb(100%,0%,0%);fill-opacity:1;" d="M 471.96875 590 L 473.238281 590 L 473.238281 590 L 471.96875 590 Z M 471.96875 590 "/>
<path style=" stroke:none;fill-rule:nonzero;fill:rgb(100%,0%,0%);fill-opacity:1;" d="M 473.238281 590 L 474.507813 590 L 474.507813 590 L 473.238281 590 Z M 473.238281 590 "/>
<path style=" stroke:none;fill-rule:nonzero;fill:rgb(100%,0%,0%);fill-opacity:1;" d="M 474.507813 590 L 475.777344 590 L 475.777344 590 L 474.507813 590 Z M 474.507813 590 "/>
<path style=" stroke:none;fill-rule:nonzero;fill:rgb(100%,0%,0%);fill-opacity:1;" d="M 475.777344 590 L 477.046875 590 L 477.046875 590 L 475.777344 590 Z M 475.777344 590 "/>
<path style=" stroke:none;fill-rule:nonzero;fill:rgb(100%,0%,0%);fill-opacity:1;" d="M 477.046875 590 L 478.316406 590 L 478.316406 590 L 477.046875 590 Z M 477.046875 590 "/>
<path style=" stroke:none;fill-rule:nonzero;fill:rgb(100%,0%,0%);fill-opacity:1;" d="M 478.316406 590 L 479.585938 590 L 479.585938 590 L 478.316406 590 Z M 478.316406 590 "/>
<path style=" stroke:none;fill-rule:nonzero;fill:rgb(100%,0%,0%);fill-opacity:1;" d="M 479.585938 590 L 480.855469 590 L 480.855469 590 L 479.585938 590 Z M 479.585938 590 "/>
<path style=" stroke:none;fill-rule:nonzero;fill:rgb(100%,0%,0%);fill-opacity:1;" d="M 480.851563 590 L 482.121094 590 L 482.121094 590 L 480.851563 590 Z M 480.851563 590 "/>
<path style=" stroke:none;fill-rule:nonzero;fill:rgb(100%,0%,0%);fill-opacity:1;" d="M 482.121094 590 L 483.390625 590 L 483.390625 590 L 482.121094 590 Z M 482.121094 590 "/>
<path style=" stroke:none;fill-rule:nonzero;fill:rgb(100%,0%,0%);fill-opacity:1;" d="M 483.390625 590 L 484.660156 590 L 484.660156 590 L 483.390625 590 Z M 483.390625 590 "/>
<path style=" stroke:none;fill-rule:nonzero;fill:rgb(100%,0%,0%);fill-opacity:1;" d="M 484.660156 590 L 485.929688 590 L 485.929688 590 L 484.660156 590 Z M 484.660156 590 "/>
<path style=" stroke:none;fill-rule:nonzero;fill:rgb(100%,0%,0%);fill-opacity:1;" d="M 485.929688 590 L 487.199219 590 L 487.199219 590 L 485.929688 590 Z M 485.929688 590 "/>
<path style=" stroke:none;fill-rule:nonzero;fill:rgb(100%,0%,0%);fill-opacity:1;" d="M 487.199219 590 L 488.46875 590 L 488.46875 590 L 487.199219 590 Z M 487.199219 590 "/>
<path style=" stroke:none;fill-rule:nonzero;fill:rgb(100%,0%,0%);fill-opacity:1;" d="M 488.46875 590 L 489.738281 590 L 489.738281 590 L 488.46875 590 Z M 488.46875 590 "/>
<path style=" stroke:none;fill-rule:nonzero;fill:rgb(100%,0%,0%);fill-opacity:1;" d="M 489.738281 590 L 491.007813 590 L 491.007813 590 L 489.738281 590 Z M 489.738281 590 "/>
<path style=" stroke:none;fill-rule:nonzero;fill:rgb(100%,0%,0%);fill-opacity:1;" d="M 491.007813 590 L 492.277344 590 L 492.277344 590 L 491.007813 590 Z M 491.007813 590 "/>
<path style=" stroke:none;fill-rule:nonzero;fill:rgb(100%,0%,0%);fill-opacity:1;" d="M 492.277344 590 L 493.546875 590 L 493.546875 590 L 492.277344 590 Z M 492.277344 590 "/>
<path style=" stroke:none;fill-rule:nonzero;fill:rgb(100%,0%,0%);fill-opacity:1;" d="M 493.542969 590 L 494.8125 590 L 494.8125 590 L 493.542969 590 Z M 493.542969 590 "/>
<path style=" stroke:none;fill-rule:nonzero;fill:rgb(100%,0%,0%);fill-opacity:1;" d="M 494.8125 590 L 496.082031 590 L 496.082031 590 L 494.8125 590 Z M 494.8125 590 "/>
<path style=" stroke:none;fill-rule:nonzero;fill:rgb(100%,0%,0%);fill-opacity:1;" d="M 496.082031 590 L 497.351563 590 L 497.351563 590 L 496.082031 590 Z M 496.082031 590 "/>
<path style=" stroke:none;fill-rule:nonzero;fill:rgb(100%,0%,0%);fill-opacity:1;" d="M 497.351563 590 L 498.621094 590 L 498.621094 590 L 497.351563 590 Z M 497.351563 590 "/>
<path style=" stroke:none;fill-rule:nonzero;fill:rgb(100%,0%,0%);fill-opacity:1;" d="M 498.621094 590 L 499.890625 590 L 499.890625 590 L 498.621094 590 Z M 498.621094 590 "/>
<path style=" stroke:none;fill-rule:nonzero;fill:rgb(100%,0%,0%);fill-opacity:1;" d="M 499.890625 590 L 501.160156 590 L 501.160156 590 L 499.890625 590 Z M 499.890625 590 "/>
<path style=" stroke:none;fill-rule:nonzero;fill:rgb(100%,0%,0%);fill-opacity:1;" d="M 501.160156 590 L 502.429688 590 L 502.429688 590 L 501.160156 590 Z M 501.160156 590 "/>
<path style=" stroke:none;fill-rule:nonzero;fill:rgb(100%,0%,0%);fill-opacity:1;" d="M 502.429688 590 L 503.699219 590 L 503.699219 590 L 502.429688 590 Z M 502.429688 590 "/>
<path style=" stroke:none;fill-rule:nonzero;fill:rgb(100%,0%,0%);fill-opacity:1;" d="M 503.699219 590 L 504.96875 590 L 504.96875 590 L 503.699219 590 Z M 503.699219 590 "/>
<path style=" stroke:none;fill-rule:nonzero;fill:rgb(100%,0%,0%);fill-opacity:1;" d="M 504.96875 590 L 506.238281 590 L 506.238281 590 L 504.96875 590 Z M 504.96875 590 "/>
<path style=" stroke:none;fill-rule:nonzero;fill:rgb(100%,0%,0%);fill-opacity:1;" d="M 506.234375 590 L 507.503906 590 L 507.503906 590 L 506.234375 590 Z M 506.234375 590 "/>
<path style=" stroke:none;fill-rule:nonzero;fill:rgb(100%,0%,0%);fill-opacity:1;" d="M 507.503906 590 L 508.773438 590 L 508.773438 590 L 507.503906 590 Z M 507.503906 590 "/>
<path style=" stroke:none;fill-rule:nonzero;fill:rgb(100%,0%,0%);fill-opacity:1;" d="M 508.773438 590 L 510.042969 590 L 510.042969 590 L 508.773438 590 Z M 508.773438 590 "/>
<path style=" stroke:none;fill-rule:nonzero;fill:rgb(100%,0%,0%);fill-opacity:1;" d="M 510.042969 590 L 511.3125 590 L 511.3125 590 L 510.042969 590 Z M 510.042969 590 "/>
<path style=" stroke:none;fill-rule:nonzero;fill:rgb(100%,0%,0%);fill-opacity:1;" d="M 511.3125 590 L 512.582031 590 L 512.582031 590 L 511.3125 590 Z M 511.3125 590 "/>
<path style=" stroke:none;fill-rule:nonzero;fill:rgb(100%,0%,0%);fill-opacity:1;" d="M 512.582031 590 L 513.851563 590 L 513.851563 590 L 512.582031 590 Z M 512.582031 590 "/>
<path style=" stroke:none;fill-rule:nonzero;fill:rgb(100%,0%,0%);fill-opacity:1;" d="M 513.851563 590 L 515.121094 590 L 515.121094 590 L 513.851563 590 Z M 513.851563 590 "/>
<path style=" stroke:none;fill-rule:nonzero;fill:rgb(100%,0%,0%);fill-opacity:1;" d="M 515.121094 590 L 516.390625 590 L 516.390625 590 L 515.121094 590 Z M 515.121094 590 "/>
<path style=" stroke:none;fill-rule:nonzero;fill:rgb(100%,0%,0%);fill-opacity:1;" d="M 516.390625 590 L 517.660156 590 L 517.660156 590 L 516.390625 590 Z M 516.390625 590 "/>
<path style=" stroke:none;fill-rule:nonzero;fill:rgb(100%,0%,0%);fill-opacity:1;" d="M 517.660156 590 L 518.929688 590 L 518.929688 590 L 517.660156 590 Z M 517.660156 590 "/>
<path style=" stroke:none;fill-rule:nonzero;fill:rgb(100%,0%,0%);fill-opacity:1;" d="M 518.929688 590 L 520.199219 590 L 520.199219 590 L 518.929688 590 Z M 518.929688 590 "/>
<path style=" stroke:none;fill-rule:nonzero;fill:rgb(100%,0%,0%);fill-opacity:1;" d="M 520.195313 590 L 521.464844 590 L 521.464844 590 L 520.195313 590 Z M 520.195313 590 "/>
<path style=" stroke:none;fill-rule:nonzero;fill:rgb(100%,0%,0%);fill-opacity:1;" d="M 521.464844 590 L 522.734375 590 L 522.734375 590 L 521.464844 590 Z M 521.464844 590 "/>
<path style=" stroke:none;fill-rule:nonzero;fill:rgb(100%,0%,0%);fill-opacity:1;" d="M 522.734375 590 L 524.003906 590 L 524.003906 590 L 522.734375 590 Z M 522.734375 590 "/>
<path style=" stroke:none;fill-rule:nonzero;fill:rgb(100%,0%,0%);fill-opacity:1;" d="M 524.003906 590 L 525.273438 590 L 525.273438 590 L 524.003906 590 Z M 524.003906 590 "/>
<path style=" stroke:none;fill-rule:nonzero;fill:rgb(100%,0%,0%);fill-opacity:1;" d="M 525.273438 590 L 526.542969 590 L 526.542969 590 L 525.273438 590 Z M 525.273438 590 "/>
<path style=" stroke:none;fill-rule:nonzero;fill:rgb(100%,0%,0%);fill-opacity:1;" d="M 526.542969 590 L 527.8125 590 L 527.8125 590 L 526.542969 590 Z M 526.542969 590 "/>
<path style=" stroke:none;fill-rule:nonzero;fill:rgb(100%,0%,0%);fill-opacity:1;" d="M 527.8125 590 L 529.082031 590 L 529.082031 590 L 527.8125 590 Z M 527.8125 590 "/>
<path style=" stroke:none;fill-rule:nonzero;fill:rgb(100%,0%,0%);fill-opacity:1;" d="M 529.082031 590 L 530.351563 590 L 530.351563 590 L 529.082031 590 Z M 529.082031 590 "/>
<path style=" stroke:none;fill-rule:nonzero;fill:rgb(100%,0%,0%);fill-opacity:1;" d="M 530.351563 590 L 531.621094 590 L 531.621094 590 L 530.351563 590 Z M 530.351563 590 "/>
<path style=" stroke:none;fill-rule:nonzero;fill:rgb(100%,0%,0%);fill-opacity:1;" d="M 531.621094 590 L 532.890625 590 L 532.890625 590 L 531.621094 590 Z M 531.621094 590 "/>
<path style=" stroke:none;fill-rule:nonzero;fill:rgb(100%,0%,0%);fill-opacity:1;" d="M 532.886719 590 L 534.15625 590 L 534.15625 590 L 532.886719 590 Z M 532.886719 590 "/>
<path style=" stroke:none;fill-rule:nonzero;fill:rgb(100%,0%,0%);fill-opacity:1;" d="M 534.15625 590 L 535.425781 590 L 535.425781 590 L 534.15625 590 Z M 534.15625 590 "/>
<path style=" stroke:none;fill-rule:nonzero;fill:rgb(100%,0%,0%);fill-opacity:1;" d="M 535.425781 590 L 536.695313 590 L 536.695313 590 L 535.425781 590 Z M 535.425781 590 "/>
<path style=" stroke:none;fill-rule:nonzero;fill:rgb(100%,0%,0%);fill-opacity:1;" d="M 536.695313 590 L 537.964844 590 L 537.964844 590 L 536.695313 590 Z M 536.695313 590 "/>
<path style=" stroke:none;fill-rule:nonzero;fill:rgb(100%,0%,0%);fill-opacity:1;" d="M 537.964844 590 L 539.234375 590 L 539.234375 590 L 537.964844 590 Z M 537.964844 590 "/>
<path style=" stroke:none;fill-rule:nonzero;fill:rgb(100%,0%,0%);fill-opacity:1;" d="M 539.234375 590 L 540.503906 590 L 540.503906 590 L 539.234375 590 Z M 539.234375 590 "/>
<path style=" stroke:none;fill-rule:nonzero;fill:rgb(100%,0%,0%);fill-opacity:1;" d="M 540.503906 590 L 541.773438 590 L 541.773438 590 L 540.503906 590 Z M 540.503906 590 "/>
<path style=" stroke:none;fill-rule:nonzero;fill:rgb(100%,0%,0%);fill-opacity:1;" d="M 541.773438 590 L 543.042969 590 L 543.042969 590 L 541.773438 590 Z M 541.773438 590 "/>
<path style=" stroke:none;fill-rule:nonzero;fill:rgb(100%,0%,0%);fill-opacity:1;" d="M 543.042969 590 L 544.3125 590 L 544.3125 590 L 543.042969 590 Z M 543.042969 590 "/>
<path style=" stroke:none;fill-rule:nonzero;fill:rgb(100%,0%,0%);fill-opacity:1;" d="M 544.3125 590 L 545.582031 590 L 545.582031 590 L 544.3125 590 Z M 544.3125 590 "/>
<path style=" stroke:none;fill-rule:nonzero;fill:rgb(100%,0%,0%);fill-opacity:1;" d="M 545.578125 590 L 546.847656 590 L 546.847656 590 L 545.578125 590 Z M 545.578125 590 "/>
<path style=" stroke:none;fill-rule:nonzero;fill:rgb(100%,0%,0%);fill-opacity:1;" d="M 546.847656 590 L 548.117188 590 L 548.117188 590 L 546.847656 590 Z M 546.847656 590 "/>
<path style=" stroke:none;fill-rule:nonzero;fill:rgb(100%,0%,0%);fill-opacity:1;" d="M 548.117188 590 L 549.386719 590 L 549.386719 590 L 548.117188 590 Z M 548.117188 590 "/>
<path style=" stroke:none;fill-rule:nonzero;fill:rgb(100%,0%,0%);fill-opacity:1;" d="M 549.386719 590 L 550.65625 590 L 550.65625 590 L 549.386719 590 Z M 549.386719 590 "/>
<path style=" stroke:none;fill-rule:nonzero;fill:rgb(100%,0%,0%);fill-opacity:1;" d="M 550.65625 590 L 551.925781 590 L 551.925781 590 L 550.65625 590 Z M 550.65625 590 "/>
<path style=" stroke:none;fill-rule:nonzero;fill:rgb(100%,0%,0%);fill-opacity:1;" d="M 551.925781 590 L 553.195313 590 L 553.195313 590 L 551.925781 590 Z M 551.925781 590 "/>
<path style=" stroke:none;fill-rule:nonzero;fill:rgb(100%,0%,0%);fill-opacity:1;" d="M 553.195313 590 L 554.464844 590 L 554.464844 590 L 553.195313 590 Z M 553.195313 590 "/>
<path style=" stroke:none;fill-rule:nonzero;fill:rgb(100%,0%,0%);fill-opacity:1;" d="M 554.464844 590 L 555.734375 590 L 555.734375 590 L 554.464844 590 Z M 554.464844 590 "/>
<path style=" stroke:none;fill-rule:nonzero;fill:rgb(100%,0%,0%);fill-opacity:1;" d="M 555.734375 590 L 557.003906 590 L 557.003906 590 L 555.734375 590 Z M 555.734375 590 "/>
<path style=" stroke:none;fill-rule:nonzero;fill:rgb(100%,0%,0%);fill-opacity:1;" d="M 557.003906 590 L 558.273438 590 L 558.273438 590 L 557.003906 590 Z M 557.003906 590 "/>
<path style=" stroke:none;fill-rule:nonzero;fill:rgb(100%,0%,0%);fill-opacity:1;" d="M 558.269531 590 L 559.539063 590 L 559.539063 590 L 558.269531 590 Z M 558.269531 590 "/>
<path style=" stroke:none;fill-rule:nonzero;fill:rgb(100%,0%,0%);fill-opacity:1;" d="M 559.539063 590 L 560.808594 590 L 560.808594 590 L 559.539063 590 Z M 559.539063 590 "/>
<path style=" stroke:none;fill-rule:nonzero;fill:rgb(100%,0%,0%);fill-opacity:1;" d="M 560.808594 590 L 562.078125 590 L 562.078125 590 L 560.808594 590 Z M 560.808594 590 "/>
<path style=" stroke:none;fill-rule:nonzero;fill:rgb(100%,0%,0%);fill-opacity:1;" d="M 562.078125 590 L 563.347656 590 L 563.347656 590 L 562.078125 590 Z M 562.078125 590 "/>
<path style=" stroke:none;fill-rule:nonzero;fill:rgb(100%,0%,0%);fill-opacity:1;" d="M 563.347656 590 L 564.617188 590 L 564.617188 590 L 563.347656 590 Z M 563.347656 590 "/>
<path style=" stroke:none;fill-rule:nonzero;fill:rgb(100%,0%,0%);fill-opacity:1;" d="M 564.617188 590 L 565.886719 590 L 565.886719 590 L 564.617188 590 Z M 564.617188 590 "/>
<path style=" stroke:none;fill-rule:nonzero;fill:rgb(100%,0%,0%);fill-opacity:1;" d="M 565.886719 590 L 567.15625 590 L 567.15625 590 L 565.886719 590 Z M 565.886719 590 "/>
<path style=" stroke:none;fill-rule:nonzero;fill:rgb(100%,0%,0%);fill-opacity:1;" d="M 567.15625 590 L 568.425781 590 L 568.425781 590 L 567.15625 590 Z M 567.15625 590 "/>
<path style=" stroke:none;fill-rule:nonzero;fill:rgb(100%,0%,0%);fill-opacity:1;" d="M 568.425781 590 L 569.695313 590 L 569.695313 590 L 568.425781 590 Z M 568.425781 590 "/>
<path style=" stroke:none;fill-rule:nonzero;fill:rgb(100%,0%,0%);fill-opacity:1;" d="M 569.695313 590 L 570.964844 590 L 570.964844 590 L 569.695313 590 Z M 569.695313 590 "/>
<path style=" stroke:none;fill-rule:nonzero;fill:rgb(100%,0%,0%);fill-opacity:1;" d="M 570.960938 590 L 572.230469 590 L 572.230469 590 L 570.960938 590 Z M 570.960938 590 "/>
<path style=" stroke:none;fill-rule:nonzero;fill:rgb(100%,0%,0%);fill-opacity:1;" d="M 572.230469 590 L 573.5 590 L 573.5 590 L 572.230469 590 Z M 572.230469 590 "/>
<path style=" stroke:none;fill-rule:nonzero;fill:rgb(100%,0%,0%);fill-opacity:1;" d="M 573.5 590 L 574.769531 590 L 574.769531 590 L 573.5 590 Z M 573.5 590 "/>
<path style=" stroke:none;fill-rule:nonzero;fill:rgb(100%,0%,0%);fill-opacity:1;" d="M 574.769531 590 L 576.039063 590 L 576.039063 590 L 574.769531 590 Z M 574.769531 590 "/>
<path style=" stroke:none;fill-rule:nonzero;fill:rgb(100%,0%,0%);fill-opacity:1;" d="M 576.039063 590 L 577.308594 590 L 577.308594 590 L 576.039063 590 Z M 576.039063 590 "/>
<path style=" stroke:none;fill-rule:nonzero;fill:rgb(100%,0%,0%);fill-opacity:1;" d="M 577.308594 590 L 578.578125 590 L 578.578125 590 L 577.308594 590 Z M 577.308594 590 "/>
<path style=" stroke:none;fill-rule:nonzero;fill:rgb(100%,0%,0%);fill-opacity:1;" d="M 578.578125 590 L 579.847656 590 L 579.847656 590 L 578.578125 590 Z M 578.578125 590 "/>
<path style=" stroke:none;fill-rule:nonzero;fill:rgb(100%,0%,0%);fill-opacity:1;" d="M 579.847656 590 L 581.117188 590 L 581.117188 590 L 579.847656 590 Z M 579.847656 590 "/>
<path style=" stroke:none;fill-rule:nonzero;fill:rgb(100%,0%,0%);fill-opacity:1;" d="M 581.117188 590 L 582.386719 590 L 582.386719 590 L 581.117188 590 Z M 581.117188 590 "/>
<path style=" stroke:none;fill-rule:nonzero;fill:rgb(100%,0%,0%);fill-opacity:1;" d="M 582.386719 590 L 583.65625 590 L 583.65625 590 L 582.386719 590 Z M 582.386719 590 "/>
<path style=" stroke:none;fill-rule:nonzero;fill:rgb(100%,0%,0%);fill-opacity:1;" d="M 583.652344 590 L 584.921875 590 L 584.921875 590 L 583.652344 590 Z M 583.652344 590 "/>
<path style=" stroke:none;fill-rule:nonzero;fill:rgb(100%,0%,0%);fill-opacity:1;" d="M 584.921875 590 L 586.191406 590 L 586.191406 590 L 584.921875 590 Z M 584.921875 590 "/>
<path style=" stroke:none;fill-rule:nonzero;fill:rgb(100%,0%,0%);fill-opacity:1;" d="M 586.191406 590 L 587.460938 590 L 587.460938 590 L 586.191406 590 Z M 586.191406 590 "/>
<path style=" stroke:none;fill-rule:nonzero;fill:rgb(100%,0%,0%);fill-opacity:1;" d="M 587.460938 590 L 588.730469 590 L 588.730469 590 L 587.460938 590 Z M 587.460938 590 "/>
<path style=" stroke:none;fill-rule:nonzero;fill:rgb(100%,0%,0%);fill-opacity:1;" d="M 588.730469 589.996094 L 590 589.996094 L 590 590 L 588.730469 590 Z M 588.730469 589.996094 "/>
<path style="fill:none;stroke-width:1;stroke-linecap:butt;stroke-linejoin:miter;stroke:rgb(0%,0%,0%);stroke-opacity:1;stroke-miterlimit:10;" d="M 10 10 L 590 10 L 590 590 L 10 590 Z M 10 10 "/>
</g>
</svg>
